<svg xmlns="http://www.w3.org/2000/svg" viewBox="0 0 872.65 230"><defs><style>.cls-1{fill:#fff;}.cls-2{fill:#e6e6e6;}</style></defs><g id="Layer_2" data-name="Layer 2"><g id="Capa_1" data-name="Capa 1"><path class="cls-1" d="M220.57,134.9l-87.36,87.35a26.47,26.47,0,0,1-37.42,0h0V179.8a15.59,15.59,0,0,1,16.44-15.48h.17a49.86,49.86,0,0,0,50.83-39.12h0c6.48-24.36-2.55-54.81-25.46-77.72C121.46,31.17,101.35,21.9,82.31,20.25l11.8-11.8a28.83,28.83,0,0,1,40.79,0l85.67,85.66A28.85,28.85,0,0,1,220.57,134.9Z"/><path class="cls-2" d="M163.23,125.2a49.88,49.88,0,1,0-98.6-10.7v76.59L8.45,134.9a28.83,28.83,0,0,1,0-40.79L82.31,20.25c19,1.65,39.15,10.92,55.46,27.23C160.68,70.39,169.71,100.84,163.23,125.2Z"/><path class="cls-1" d="M282,11.57h29.19c17.63,0,30.71,13.54,30.71,30.36S328.8,72.4,311.05,72.4H297.86V96.81H282Zm15.88,14.71V57.69H310a15.44,15.44,0,0,0,15.88-15.76c0-8.76-6.53-15.65-15.88-15.65Z"/><path class="cls-1" d="M349.46,10.4h15.88V96.81H349.46Z"/><path class="cls-1" d="M372.23,62.71c0-22.65,16.58-35.61,33.86-35.61,9,0,16.93,3.62,22,9.57V28.5h15.77V96.81H428V87.93a28,28,0,0,1-22.18,10.28C389.4,98.21,372.23,85.13,372.23,62.71Zm56.63-.23c0-11.68-8.64-21-20.43-21s-20.67,9.22-20.67,21,9,21.25,20.67,21.25S428.86,74.27,428.86,62.48Z"/><path class="cls-1" d="M450.34,28.5H462V18.11L477.9,7.25V28.5h13.89V42.63H477.9V68.2c0,11.91,1.75,13.78,13.89,13.78V96.81h-2.22C468.44,96.81,462,90,462,68.31V42.63H450.34Z"/><path class="cls-1" d="M507.32,1.88c6.18,0,9.92,4,9.92,9.92s-3.74,9.81-9.92,9.81c-6.43,0-9.93-3.85-9.93-9.81S501.24,1.88,507.32,1.88ZM499.38,28.5h15.88V96.81H499.38Z"/><path class="cls-1" d="M524.36,28.5H540v8.41a25,25,0,0,1,20.43-9.81c17.16,0,27.09,10.62,27.09,29.19V96.81h-16V57.92c0-10.62-5.14-17.16-15.41-17.16-9,0-16,6.54-16,18.56V96.81H524.36Z"/><path class="cls-1" d="M594.41,62.71a35.38,35.38,0,1,1,35.38,35.5A35.18,35.18,0,0,1,594.41,62.71Zm55.23,0c0-11.56-8.64-20.78-19.85-20.78s-19.85,9.22-19.85,20.78c0,11.33,8.52,20.67,19.85,20.67S649.64,74,649.64,62.71Z"/><path class="cls-1" d="M284.08,115.68H332.3v10.74h-37v26.39h37v10.74h-37v37.36H284.08Z"/><path class="cls-1" d="M342.46,167.17c0-20.32,15.18-36,35.49-36,20,0,35,14.12,35,34.67v4.68H353.32c1.52,12.95,11.44,21.83,25.22,21.83,10.86,0,18.68-5.61,22.77-14.48l9.46,5c-6.19,12.14-16.47,19.38-32.23,19.38C356.7,202.31,342.46,187.14,342.46,167.17Zm11.44-6.54h47.76c-2-12.14-10.51-19.5-23.71-19.5C365.81,141.13,356.47,149.3,353.9,160.63Z"/><path class="cls-1" d="M425.47,132.61h11v9.8c3.38-6.65,9.11-9.92,17.28-9.92A25.93,25.93,0,0,1,467,136l-4.67,10.4c-2.69-1.76-4.79-3-10.39-3-9.23,0-15.42,5.6-15.42,19,0,.7-.23,10.39.12,19.73v18.8H425.47Z"/><path class="cls-1" d="M476.38,132.61h11v9.8c3.39-6.65,9.11-9.92,17.28-9.92a25.88,25.88,0,0,1,13.31,3.5l-4.67,10.4c-2.68-1.76-4.78-3-10.39-3-9.22,0-15.41,5.6-15.41,19,0,.7-.23,10.39.12,19.73v18.8H476.38Z"/><path class="cls-1" d="M521.09,167.17c0-20.32,15.18-36,35.5-36,20,0,35,14.12,35,34.67v4.68H532c1.52,12.95,11.44,21.83,25.22,21.83,10.86,0,18.68-5.61,22.77-14.48l9.46,5c-6.19,12.14-16.46,19.38-32.23,19.38C535.34,202.31,521.09,187.14,521.09,167.17Zm11.44-6.54h47.76c-2-12.14-10.51-19.5-23.7-19.5C544.44,141.13,535.11,149.3,532.53,160.63Z"/><path class="cls-1" d="M598.15,132.61h11.91v-13l11-7.59v20.55h16v10H621v31.76c0,13.66,2.46,16,16,16v10.51H635.4c-20,0-25.34-5.84-25.34-26.39V142.65H598.15Z"/><path class="cls-1" d="M644.39,167.17c0-20.32,15.18-36,35.49-36,20,0,35,14.12,35,34.67v4.68H655.25c1.51,12.95,11.44,21.83,25.22,21.83,10.85,0,18.68-5.61,22.76-14.48l9.46,5c-6.19,12.14-16.46,19.38-32.22,19.38C658.63,202.31,644.39,187.14,644.39,167.17Zm11.44-6.54h47.75c-2-12.14-10.5-19.5-23.7-19.5C667.74,141.13,658.4,149.3,655.83,160.63Z"/><path class="cls-1" d="M727.4,132.61h11v9.8c3.39-6.65,9.11-9.92,17.29-9.92A25.93,25.93,0,0,1,769,136l-4.67,10.4c-2.69-1.76-4.79-3-10.4-3-9.22,0-15.41,5.6-15.41,19,0,.7-.23,10.39.12,19.73v18.8H727.4Z"/><path class="cls-1" d="M778.3,132.61h11.21v68.3H778.3Zm14.83-25.69h12.26l-17,19h-8.76Z"/><path class="cls-1" d="M801.77,166.82c0-20.43,15.41-35.61,34.8-35.61,9.69,0,19.61,4.67,25.1,12.72V132.61h11v68.3h-11V189.35a26.92,26.92,0,0,1-11.09,9.58,31.88,31.88,0,0,1-14,3.38C817.42,202.31,801.77,187.14,801.77,166.82Zm60.72-.12c0-14-10.86-25.34-24.87-25.34C824,141.36,813,152.69,813,166.7S824,192,837.62,192C851.63,192,862.49,180.83,862.49,166.7Z"/></g></g></svg>