<svg xmlns="http://www.w3.org/2000/svg" xmlns:xlink="http://www.w3.org/1999/xlink" viewBox="0 0 716.43 230"><defs><style>.cls-1{fill:url(#Degradado_sin_nombre_279);}.cls-2{fill:url(#Degradado_sin_nombre_279-2);}</style><linearGradient id="Degradado_sin_nombre_279" x1="109.53" y1="210.23" x2="165.21" y2="40.63" gradientUnits="userSpaceOnUse"><stop offset="0" stop-color="#00453f"/><stop offset="0.09" stop-color="#004e40"/><stop offset="0.48" stop-color="#007143"/><stop offset="0.79" stop-color="#008745"/><stop offset="1" stop-color="#008f46"/></linearGradient><linearGradient id="Degradado_sin_nombre_279-2" x1="135.61" y1="55.64" x2="38.17" y2="161.36" xlink:href="#Degradado_sin_nombre_279"/></defs><g id="Layer_2" data-name="Layer 2"><g id="Capa_1" data-name="Capa 1"><path class="cls-1" d="M220.57,134.9l-87.36,87.35a26.47,26.47,0,0,1-37.42,0h0V179.8a15.59,15.59,0,0,1,16.44-15.48h.17a49.86,49.86,0,0,0,50.83-39.12h0c6.48-24.36-2.55-54.81-25.46-77.72C121.46,31.17,101.35,21.9,82.31,20.25l11.8-11.8a28.83,28.83,0,0,1,40.79,0l85.67,85.66A28.85,28.85,0,0,1,220.57,134.9Z"/><path class="cls-2" d="M163.23,125.2a49.88,49.88,0,1,0-98.6-10.7v76.59L8.45,134.9a28.83,28.83,0,0,1,0-40.79L82.31,20.25c19,1.65,39.15,10.92,55.46,27.23C160.68,70.39,169.71,100.84,163.23,125.2Z"/><path d="M282,11.57h29.19c17.63,0,30.71,13.54,30.71,30.36S328.8,72.4,311.06,72.4h-13.2V96.81H282Zm15.88,14.71V57.69H310a15.44,15.44,0,0,0,15.88-15.76c0-8.76-6.53-15.65-15.88-15.65Z"/><path d="M349.47,10.4h15.87V96.81H349.47Z"/><path d="M372.23,62.71c0-22.65,16.58-35.61,33.86-35.61,9,0,16.93,3.62,22,9.57V28.5h15.77V96.81H428V87.93a28,28,0,0,1-22.18,10.28C389.4,98.21,372.23,85.13,372.23,62.71Zm56.63-.23c0-11.68-8.64-21-20.43-21s-20.67,9.22-20.67,21,9,21.25,20.67,21.25S428.86,74.27,428.86,62.48Z"/><path d="M450.34,28.5H462V18.11L477.9,7.25V28.5h13.89V42.63H477.9V68.2c0,11.91,1.75,13.78,13.89,13.78V96.81h-2.22C468.44,96.81,462,90,462,68.31V42.63H450.34Z"/><path d="M507.32,1.88c6.18,0,9.92,4,9.92,9.92s-3.74,9.81-9.92,9.81c-6.43,0-9.93-3.85-9.93-9.81S501.24,1.88,507.32,1.88ZM499.38,28.5h15.88V96.81H499.38Z"/><path d="M524.36,28.5H540v8.41a25,25,0,0,1,20.43-9.81c17.16,0,27.09,10.62,27.09,29.19V96.81h-16V57.92c0-10.62-5.14-17.16-15.41-17.16-9,0-16,6.54-16,18.56V96.81H524.36Z"/><path d="M594.41,62.71a35.38,35.38,0,1,1,35.38,35.5A35.18,35.18,0,0,1,594.41,62.71Zm55.23,0c0-11.56-8.64-20.78-19.85-20.78s-19.85,9.22-19.85,20.78c0,11.33,8.53,20.67,19.85,20.67S649.64,74,649.64,62.71Z"/><path d="M283.85,172.42V115.68h11.21v57.44a18.51,18.51,0,0,0,37,0V115.68h11.21v56.74c0,17.87-12.73,29.66-29.77,29.66S283.85,190.29,283.85,172.42Z"/><path d="M352.15,188.19l9.46-6.19a23.17,23.17,0,0,0,19.62,10.51c10.15,0,15.17-5.26,15.17-11.33,0-7-8.87-8.41-18.09-10.51-11.21-2.8-23-6.3-23-19.73,0-10.39,9.7-19.85,25.11-19.85,11.09,0,20.55,4.2,26,11.32l-8.76,6.08a21.43,21.43,0,0,0-17.28-7.94c-9.23,0-14,4.55-14,10.16,0,6.77,7.94,8,17.63,10.5,11,2.81,23.35,6,23.35,19.85,0,9-7.82,21.25-26.51,21.25C367.91,202.31,358.34,197.06,352.15,188.19Z"/><path d="M417.07,166.82c0-20.43,15.41-35.61,34.79-35.61,9.69,0,19.62,4.67,25.11,12.72V132.61h11v68.3H477V189.35a27,27,0,0,1-11.1,9.58,31.81,31.81,0,0,1-14,3.38C432.71,202.31,417.07,187.14,417.07,166.82Zm60.71-.12c0-14-10.86-25.34-24.87-25.34-13.66,0-24.63,11.33-24.63,25.34s11,25.34,24.63,25.34C466.92,192,477.78,180.83,477.78,166.7Z"/><path d="M500.2,166.82c0-20.43,15.41-35.61,34.79-35.61,9.46,0,19.5,4.55,25,12.61V114.51h11v86.4H560.09V189.35A26.86,26.86,0,0,1,549,198.93a31.81,31.81,0,0,1-14,3.38C515.84,202.31,500.2,187.14,500.2,166.82Zm60.71-.12c0-14-10.86-25.34-24.87-25.34-13.66,0-24.64,11.33-24.64,25.34S522.38,192,536,192C550.05,192,560.91,180.83,560.91,166.7Z"/><path d="M583.21,166.82a35.44,35.44,0,1,1,35.38,35.49A35.18,35.18,0,0,1,583.21,166.82Zm59.78,0c0-14-10.74-25.34-24.4-25.34s-24.17,11.33-24.17,25.34S605,192,618.59,192,643,180.71,643,166.82Z"/><path d="M661.2,188.19l9.46-6.19a23.17,23.17,0,0,0,19.61,10.51c10.16,0,15.18-5.26,15.18-11.33,0-7-8.87-8.41-18.09-10.51-11.21-2.8-23-6.3-23-19.73,0-10.39,9.69-19.85,25.11-19.85,11.09,0,20.55,4.2,26,11.32l-8.75,6.08a21.44,21.44,0,0,0-17.28-7.94c-9.23,0-14,4.55-14,10.16,0,6.77,7.94,8,17.63,10.5,11,2.81,23.35,6,23.35,19.85,0,9-7.82,21.25-26.51,21.25C677,202.31,667.39,197.06,661.2,188.19Z"/></g></g></svg>