<svg xmlns="http://www.w3.org/2000/svg" xmlns:xlink="http://www.w3.org/1999/xlink" viewBox="0 0 836.68 230"><defs><style>.cls-1{fill:url(#Degradado_sin_nombre_661);}.cls-2{fill:url(#Degradado_sin_nombre_661-2);}</style><linearGradient id="Degradado_sin_nombre_661" x1="109.53" y1="210.23" x2="165.21" y2="40.63" gradientUnits="userSpaceOnUse"><stop offset="0" stop-color="#117187"/><stop offset="0.26" stop-color="#0b91af"/><stop offset="0.59" stop-color="#05b3da"/><stop offset="0.85" stop-color="#01c9f5"/><stop offset="1" stop-color="#00d1ff"/></linearGradient><linearGradient id="Degradado_sin_nombre_661-2" x1="135.61" y1="55.64" x2="38.17" y2="161.36" xlink:href="#Degradado_sin_nombre_661"/></defs><g id="Layer_2" data-name="Layer 2"><g id="Capa_1" data-name="Capa 1"><path class="cls-1" d="M220.57,134.9l-87.36,87.35a26.47,26.47,0,0,1-37.42,0h0V179.8a15.59,15.59,0,0,1,16.44-15.48h.17a49.86,49.86,0,0,0,50.83-39.12h0c6.48-24.36-2.55-54.81-25.46-77.72C121.46,31.17,101.35,21.9,82.31,20.25l11.8-11.8a28.83,28.83,0,0,1,40.79,0l85.67,85.66A28.85,28.85,0,0,1,220.57,134.9Z"/><path class="cls-2" d="M163.23,125.2a49.88,49.88,0,1,0-98.6-10.7v76.59L8.45,134.9a28.83,28.83,0,0,1,0-40.79L82.31,20.25c19,1.65,39.15,10.92,55.46,27.23C160.68,70.39,169.71,100.84,163.23,125.2Z"/><path d="M282,11.57h29.19c17.63,0,30.71,13.54,30.71,30.36S328.8,72.4,311.06,72.4h-13.2V96.81H282Zm15.88,14.71V57.69H310a15.44,15.44,0,0,0,15.88-15.76c0-8.76-6.54-15.65-15.88-15.65Z"/><path d="M349.47,10.4h15.87V96.81H349.47Z"/><path d="M372.23,62.71c0-22.65,16.58-35.61,33.86-35.61,9,0,16.93,3.62,22,9.57V28.5h15.77V96.81H428V87.93a28,28,0,0,1-22.18,10.28C389.4,98.21,372.23,85.13,372.23,62.71Zm56.63-.23c0-11.68-8.64-21-20.43-21s-20.67,9.22-20.67,21,9,21.25,20.67,21.25S428.86,74.27,428.86,62.48Z"/><path d="M450.34,28.5H462V18.11L477.9,7.25V28.5h13.89V42.63H477.9V68.2c0,11.91,1.75,13.78,13.89,13.78V96.81h-2.22C468.44,96.81,462,90,462,68.32V42.63H450.34Z"/><path d="M507.31,1.88c6.19,0,9.93,4,9.93,9.92s-3.74,9.81-9.93,9.81c-6.42,0-9.92-3.85-9.92-9.81S501.24,1.88,507.31,1.88ZM499.38,28.5h15.87V96.81H499.38Z"/><path d="M524.36,28.5H540v8.41a24.94,24.94,0,0,1,20.43-9.81c17.16,0,27.09,10.62,27.09,29.19V96.81h-16V57.92c0-10.62-5.14-17.16-15.41-17.16-9,0-16,6.54-16,18.56V96.81H524.36Z"/><path d="M594.41,62.71a35.38,35.38,0,1,1,35.38,35.5A35.19,35.19,0,0,1,594.41,62.71Zm55.23,0c0-11.56-8.64-20.78-19.85-20.78s-19.85,9.22-19.85,20.78c0,11.33,8.53,20.67,19.85,20.67S649.64,74,649.64,62.71Z"/><path d="M279.06,186.9l9.93-7.71c5.13,7.95,12,12.26,20.9,12.26,9.92,0,16.58-6.18,16.58-14.59,0-9.34-9.46-12.49-19.74-15.65-11.56-3.73-23.93-8.4-23.93-23.82,0-12.84,11.44-22.88,26.85-22.88,12.61,0,20.55,4.9,27,12.38l-9.23,6.89c-4.09-6.19-9.92-9.23-17.75-9.23-9.22,0-15.29,5.26-15.29,12.61,0,9,9.45,11.56,19.38,15,11.79,4.08,24.4,8.87,24.4,24.75,0,13.08-10.86,25.22-28.14,25.22C295.64,202.08,286.07,196.13,279.06,186.9Z"/><path d="M349.23,166.82a35.44,35.44,0,1,1,35.38,35.49A35.18,35.18,0,0,1,349.23,166.82Zm59.78,0c0-14-10.74-25.34-24.4-25.34s-24.17,11.33-24.17,25.34S371.06,192,384.61,192,409,180.71,409,166.82Z"/><path d="M426.52,132.61h11.91v-1.05c0-20.55,5.84-26.39,26-26.39h1v10.39c-14.13,0-16,2.45-16,16.11v.94h16v10h-16v58.26h-11.1V142.65H426.52Z"/><path d="M473.11,132.61H485v-13l11-7.59v20.55h16v10H496v31.76c0,13.66,2.45,16,16,16v10.51h-1.64c-20,0-25.33-5.84-25.33-26.39V142.65H473.11Z"/><path d="M520.63,132.61h11.56L549,185.5l20.31-52.89h10.28l20.32,53.12,17.39-53.12h11.56l-23.23,68.3H594.89l-20.55-53.12-20.55,53.12h-11Z"/><path d="M634.93,166.82c0-20.43,15.41-35.61,34.8-35.61,9.69,0,19.61,4.67,25.1,12.72V132.61h11v68.3h-11V189.35a26.92,26.92,0,0,1-11.09,9.58,31.88,31.88,0,0,1-14,3.38C650.58,202.31,634.93,187.14,634.93,166.82Zm60.72-.12c0-14-10.86-25.34-24.87-25.34-13.66,0-24.64,11.33-24.64,25.34s11,25.34,24.64,25.34C684.79,192,695.65,180.83,695.65,166.7Z"/><path d="M721.45,132.61h11v9.8c3.39-6.65,9.11-9.92,17.28-9.92A25.88,25.88,0,0,1,763,136l-4.67,10.4c-2.68-1.76-4.78-3-10.39-3-9.22,0-15.41,5.6-15.41,19,0,.7-.24,10.39.11,19.73v18.8h-11.2Z"/><path d="M766.16,167.17c0-20.32,15.18-36,35.5-36,20,0,35,14.12,35,34.67v4.68H777c1.52,12.95,11.44,21.83,25.22,21.83,10.86,0,18.68-5.61,22.77-14.48l9.46,5c-6.19,12.14-16.47,19.38-32.23,19.38C780.41,202.31,766.16,187.14,766.16,167.17Zm11.44-6.54h47.76c-2-12.14-10.51-19.5-23.7-19.5C789.51,141.13,780.17,149.3,777.6,160.63Z"/></g></g></svg>