<svg xmlns="http://www.w3.org/2000/svg" xmlns:xlink="http://www.w3.org/1999/xlink" viewBox="0 0 348.26 349.76"><defs><style>.cls-1{fill:url(#Degradado_sin_nombre_327);}.cls-2{fill:url(#Degradado_sin_nombre_327-2);}</style><linearGradient id="Degradado_sin_nombre_327" x1="130.03" y1="177.37" x2="405.3" y2="161.79" gradientUnits="userSpaceOnUse"><stop offset="0" stop-color="#575756"/><stop offset="0.02" stop-color="#626261"/><stop offset="0.14" stop-color="#959595"/><stop offset="0.25" stop-color="#bbbbba"/><stop offset="0.33" stop-color="#d2d2d2"/><stop offset="0.38" stop-color="#dadada"/><stop offset="0.63" stop-color="#9c9c9c"/><stop offset="0.85" stop-color="#6a6a69"/><stop offset="0.96" stop-color="#575756"/></linearGradient><linearGradient id="Degradado_sin_nombre_327-2" x1="203.7" y1="95.46" x2="-33.79" y2="306.76" xlink:href="#Degradado_sin_nombre_327"/></defs><g id="Layer_2" data-name="Layer 2"><g id="Capa_1" data-name="Capa 1"><path class="cls-1" d="M335.41,205.15,202.58,338a40.23,40.23,0,0,1-56.91,0h0V273.42a23.7,23.7,0,0,1,25-23.53h.26a75.84,75.84,0,0,0,77.3-59.49v0c9.85-37-3.87-83.35-38.72-118.19-24.79-24.8-55.38-38.89-84.33-41.41l17.94-17.94a43.86,43.86,0,0,1,62,0L335.41,143.12A43.86,43.86,0,0,1,335.41,205.15Z"/><path class="cls-2" d="M248.22,190.39A75.85,75.85,0,1,0,98.29,174.12V290.59L12.85,205.15a43.86,43.86,0,0,1,0-62L125.17,30.79c29,2.52,59.54,16.61,84.33,41.41C244.35,107,258.07,153.34,248.22,190.39Z"/></g></g></svg>