<svg xmlns="http://www.w3.org/2000/svg" viewBox="0 0 732.19 234.19"><defs><style>.cls-1{fill:#fff;}.cls-2{fill:#e6e6e6;}</style></defs><g id="Layer_2" data-name="Layer 2"><g id="Capa_1" data-name="Capa 1"><path class="cls-1" d="M220.57,134.9l-87.36,87.35a26.47,26.47,0,0,1-37.42,0h0V179.8a15.59,15.59,0,0,1,16.44-15.48h.17a49.86,49.86,0,0,0,50.83-39.12h0c6.48-24.36-2.55-54.81-25.46-77.72C121.46,31.17,101.35,21.9,82.31,20.25l11.8-11.8a28.83,28.83,0,0,1,40.79,0l85.67,85.66A28.85,28.85,0,0,1,220.57,134.9Z"/><path class="cls-2" d="M163.23,125.2a49.88,49.88,0,1,0-98.6-10.7v76.59L8.45,134.9a28.83,28.83,0,0,1,0-40.79L82.31,20.25c19,1.65,39.15,10.92,55.46,27.23C160.68,70.39,169.71,100.84,163.23,125.2Z"/><path class="cls-1" d="M282,11.57h29.19c17.63,0,30.71,13.54,30.71,30.36S328.8,72.4,311.05,72.4H297.86V96.81H282Zm15.88,14.71V57.69H310a15.44,15.44,0,0,0,15.88-15.76c0-8.76-6.53-15.65-15.88-15.65Z"/><path class="cls-1" d="M349.46,10.4h15.88V96.81H349.46Z"/><path class="cls-1" d="M372.23,62.71c0-22.65,16.58-35.61,33.86-35.61,9,0,16.93,3.62,22,9.57V28.5h15.77V96.81H428V87.93a28,28,0,0,1-22.18,10.28C389.4,98.21,372.23,85.13,372.23,62.71Zm56.63-.23c0-11.68-8.64-21-20.43-21s-20.67,9.22-20.67,21,9,21.25,20.67,21.25S428.86,74.27,428.86,62.48Z"/><path class="cls-1" d="M450.34,28.5H462V18.11L477.9,7.25V28.5h13.89V42.63H477.9V68.2c0,11.91,1.75,13.78,13.89,13.78V96.81h-2.22C468.44,96.81,462,90,462,68.31V42.63H450.34Z"/><path class="cls-1" d="M507.32,1.88c6.18,0,9.92,4,9.92,9.92s-3.74,9.81-9.92,9.81c-6.43,0-9.93-3.85-9.93-9.81S501.24,1.88,507.32,1.88ZM499.38,28.5h15.88V96.81H499.38Z"/><path class="cls-1" d="M524.36,28.5H540v8.41a25,25,0,0,1,20.43-9.81c17.16,0,27.09,10.62,27.09,29.19V96.81h-16V57.92c0-10.62-5.14-17.16-15.41-17.16-9,0-16,6.54-16,18.56V96.81H524.36Z"/><path class="cls-1" d="M594.41,62.71a35.38,35.38,0,1,1,35.38,35.5A35.18,35.18,0,0,1,594.41,62.71Zm55.23,0c0-11.56-8.64-20.78-19.85-20.78s-19.85,9.22-19.85,20.78c0,11.33,8.52,20.67,19.85,20.67S649.64,74,649.64,62.71Z"/><path class="cls-1" d="M284.08,115.68h11.21v74.37h36.08v10.86H284.08Z"/><path class="cls-1" d="M338.14,166.82a35.44,35.44,0,1,1,35.38,35.49A35.18,35.18,0,0,1,338.14,166.82Zm59.78,0c0-14-10.74-25.34-24.4-25.34s-24.17,11.33-24.17,25.34S360,192,373.52,192,397.92,180.71,397.92,166.82Z"/><path class="cls-1" d="M419.4,166.82c0-20.43,15.41-35.61,34.79-35.61,9.7,0,19.62,4.67,25.11,13V132.61h11.09v67c0,21-14.24,34.56-35,34.56-16.69,0-26.74-6.89-33.16-18.1l9.81-5.84c4.9,8.29,10.74,13.9,23.47,13.9,14.71,0,23.82-9.81,23.82-24.17V189.35a26.92,26.92,0,0,1-11.09,9.58,31.88,31.88,0,0,1-14,3.38C435.05,202.31,419.4,187.14,419.4,166.82Zm60.72-.12c0-14-10.86-25.34-24.87-25.34-13.66,0-24.64,11.33-24.64,25.34s11,25.34,24.64,25.34C469.26,192,480.12,180.83,480.12,166.7Z"/><path class="cls-1" d="M511.05,108.09c5.14,0,8.06,3.15,8.06,7.82s-2.92,7.94-8.06,7.94-7.94-3.15-7.94-7.94S506.27,108.09,511.05,108.09Zm-5.6,24.52h11.21v68.3H505.45Z"/><path class="cls-1" d="M526.23,188.19l9.46-6.19a23.17,23.17,0,0,0,19.61,10.51c10.16,0,15.18-5.26,15.18-11.33,0-7-8.87-8.41-18.1-10.51-11.2-2.8-23-6.3-23-19.73,0-10.39,9.69-19.85,25.11-19.85,11.09,0,20.55,4.2,26,11.32l-8.75,6.08a21.44,21.44,0,0,0-17.28-7.94c-9.23,0-14,4.55-14,10.16,0,6.77,7.94,8,17.63,10.5,11,2.81,23.35,6,23.35,19.85,0,9-7.82,21.25-26.51,21.25C542,202.31,532.42,197.06,526.23,188.19Z"/><path class="cls-1" d="M589,132.61H601v-13l11-7.59v20.55h16v10h-16v31.76c0,13.66,2.45,16,16,16v10.51h-1.64c-20,0-25.34-5.84-25.34-26.39V142.65H589Z"/><path class="cls-1" d="M645.91,108.09c5.13,0,8.05,3.15,8.05,7.82s-2.92,7.94-8.05,7.94S638,120.7,638,115.91,641.12,108.09,645.91,108.09Zm-5.61,24.52h11.21v68.3H640.3Z"/><path class="cls-1" d="M663.77,166.82c0-20.32,15.76-35.61,35.84-35.61,14.95,0,27,8.52,32,20.78l-9.93,4.2c-4.08-9.22-11.91-14.71-22.18-14.71-14,0-24.52,11.21-24.52,25.34,0,13.89,10.51,25.22,24.87,25.22,10.86,0,18.45-6.66,22.18-15.53L732.19,181c-5.25,12.49-16.7,21.36-32.58,21.36C679.06,202.31,663.77,186.43,663.77,166.82Z"/></g></g></svg>