<svg xmlns="http://www.w3.org/2000/svg" xmlns:xlink="http://www.w3.org/1999/xlink" viewBox="0 0 905.57 232.32"><defs><style>.cls-1{fill:url(#Degradado_sin_nombre_509);}.cls-2{fill:url(#Degradado_sin_nombre_509-2);}</style><linearGradient id="Degradado_sin_nombre_509" x1="109.53" y1="210.23" x2="165.21" y2="40.63" gradientUnits="userSpaceOnUse"><stop offset="0" stop-color="#181863"/><stop offset="0.26" stop-color="#1a3889"/><stop offset="0.59" stop-color="#1d5ab2"/><stop offset="0.85" stop-color="#1e70cc"/><stop offset="1" stop-color="#1f78d5"/></linearGradient><linearGradient id="Degradado_sin_nombre_509-2" x1="135.61" y1="55.64" x2="38.17" y2="161.36" xlink:href="#Degradado_sin_nombre_509"/></defs><g id="Layer_2" data-name="Layer 2"><g id="Capa_1" data-name="Capa 1"><path class="cls-1" d="M220.57,134.9l-87.36,87.35a26.47,26.47,0,0,1-37.42,0h0V179.8a15.59,15.59,0,0,1,16.44-15.48h.17a49.86,49.86,0,0,0,50.83-39.12h0c6.48-24.36-2.55-54.81-25.46-77.72C121.46,31.17,101.35,21.9,82.31,20.25l11.8-11.8a28.83,28.83,0,0,1,40.79,0l85.67,85.66A28.85,28.85,0,0,1,220.57,134.9Z"/><path class="cls-2" d="M163.23,125.2a49.88,49.88,0,1,0-98.6-10.7v76.59L8.45,134.9a28.83,28.83,0,0,1,0-40.79L82.31,20.25c19,1.65,39.15,10.92,55.46,27.23C160.68,70.39,169.71,100.84,163.23,125.2Z"/><path d="M282,11.57h29.19c17.63,0,30.71,13.54,30.71,30.36S328.8,72.4,311.06,72.4h-13.2V96.81H282Zm15.88,14.71V57.69H310a15.44,15.44,0,0,0,15.88-15.76c0-8.76-6.53-15.65-15.88-15.65Z"/><path d="M349.47,10.4h15.87V96.81H349.47Z"/><path d="M372.23,62.71c0-22.65,16.58-35.61,33.86-35.61,9,0,16.93,3.62,22,9.57V28.5h15.77V96.81H428V87.93a28,28,0,0,1-22.18,10.28C389.4,98.21,372.23,85.13,372.23,62.71Zm56.63-.23c0-11.68-8.64-21-20.43-21s-20.67,9.22-20.67,21,9,21.25,20.67,21.25S428.86,74.27,428.86,62.48Z"/><path d="M450.34,28.5H462V18.11L477.9,7.25V28.5h13.89V42.63H477.9V68.2c0,11.91,1.75,13.78,13.89,13.78V96.81h-2.22C468.44,96.81,462,90,462,68.32V42.63H450.34Z"/><path d="M507.32,1.88c6.18,0,9.92,4,9.92,9.92s-3.74,9.81-9.92,9.81c-6.43,0-9.93-3.85-9.93-9.81S501.24,1.88,507.32,1.88ZM499.38,28.5h15.88V96.81H499.38Z"/><path d="M524.36,28.5H540v8.41a25,25,0,0,1,20.43-9.81c17.16,0,27.09,10.62,27.09,29.19V96.81h-16V57.92c0-10.62-5.14-17.16-15.41-17.16-9,0-16,6.54-16,18.56V96.81H524.36Z"/><path d="M594.41,62.71a35.38,35.38,0,1,1,35.38,35.5A35.19,35.19,0,0,1,594.41,62.71Zm55.23,0c0-11.56-8.64-20.78-19.85-20.78s-19.85,9.22-19.85,20.78c0,11.33,8.53,20.67,19.85,20.67S649.64,74,649.64,62.71Z"/><path d="M284.08,115.68h27.33c17.63,0,29.65,12,29.65,27.55a27.81,27.81,0,0,1-17.4,25.46l18.69,32.22H329.62l-16.81-29.65H295.18v29.65h-11.1Zm11.1,10.51v34.67h14.94c12.84,0,19.5-9.22,19.5-17.63,0-10.16-6.77-17-19.38-17Z"/><path d="M348.18,167.17c0-20.32,15.18-36,35.5-36,20,0,35,14.12,35,34.67v4.68H359c1.52,13,11.44,21.83,25.22,21.83,10.86,0,18.68-5.61,22.77-14.48l9.46,5c-6.19,12.14-16.47,19.38-32.23,19.38C362.43,202.31,348.18,187.14,348.18,167.17Zm11.44-6.54h47.76c-2-12.14-10.51-19.5-23.7-19.5C371.53,141.13,362.19,149.3,359.62,160.63Z"/><path d="M442.05,190.17v42.15H431.19V132.61h10.86v11.56c5.49-8.29,15.42-13,25.11-13,19.26,0,34.56,15.18,34.56,35.61s-15.53,35.49-34.56,35.49C457,202.31,447.31,198.11,442.05,190.17Zm48.57-23.47c0-14-11-25.34-24.51-25.34-14.48,0-25,11.33-25,25.34s10.51,25.34,25,25.34C479.65,192,490.62,180.83,490.62,166.7Z"/><path d="M513.86,171.37V132.61h11.21V170.9c0,13.2,5.6,21.49,18.68,21.49,11.67,0,18.56-9,18.56-21.83V132.61H573.4v68.3H562.54v-9.57c-4.08,6.65-10.85,11-20.66,11C523.78,202.31,513.86,191,513.86,171.37Z"/><path d="M585.66,167.17c0-20.32,15.18-36,35.49-36,20,0,35,14.12,35,34.67v4.68H596.52c1.52,13,11.44,21.83,25.22,21.83,10.86,0,18.68-5.61,22.77-14.48l9.45,5c-6.18,12.14-16.46,19.38-32.22,19.38C599.9,202.31,585.66,187.14,585.66,167.17Zm11.44-6.54h47.76c-2-12.14-10.51-19.5-23.71-19.5C609,141.13,599.67,149.3,597.1,160.63Z"/><path d="M663.3,188.19l9.46-6.19a23.17,23.17,0,0,0,19.61,10.51c10.16,0,15.18-5.26,15.18-11.33,0-7-8.87-8.41-18.1-10.51-11.21-2.8-23-6.3-23-19.73,0-10.39,9.69-19.85,25.11-19.85,11.09,0,20.55,4.2,26,11.33l-8.75,6.07a21.44,21.44,0,0,0-17.28-7.94c-9.23,0-14,4.55-14,10.16,0,6.77,7.94,8,17.64,10.5,11,2.81,23.35,6,23.35,19.85,0,9-7.83,21.25-26.51,21.25C679.06,202.31,669.49,197.06,663.3,188.19Z"/><path d="M726.12,132.61H738v-13l11-7.59v20.55h16v10H749v31.76c0,13.66,2.45,16,16,16v10.51h-1.64c-20,0-25.34-5.84-25.34-26.39V142.65h-11.9Z"/><path d="M772.35,166.82a35.44,35.44,0,1,1,35.38,35.49A35.18,35.18,0,0,1,772.35,166.82Zm59.78,0c0-14-10.74-25.34-24.4-25.34s-24.17,11.33-24.17,25.34S794.19,192,807.73,192,832.13,180.71,832.13,166.82Z"/><path d="M850.34,188.19,859.8,182a23.17,23.17,0,0,0,19.62,10.51c10.15,0,15.18-5.26,15.18-11.33,0-7-8.88-8.41-18.1-10.51-11.21-2.8-23-6.3-23-19.73,0-10.39,9.69-19.85,25.1-19.85,11.09,0,20.55,4.2,26,11.33l-8.76,6.07a21.43,21.43,0,0,0-17.28-7.94c-9.22,0-14,4.55-14,10.16,0,6.77,7.94,8,17.63,10.5,11,2.81,23.35,6,23.35,19.85,0,9-7.82,21.25-26.5,21.25C866.11,202.31,856.53,197.06,850.34,188.19Z"/></g></g></svg>