<svg xmlns="http://www.w3.org/2000/svg" xmlns:xlink="http://www.w3.org/1999/xlink" viewBox="0 0 1025.13 230"><defs><style>.cls-1{fill:url(#Degradado_sin_nombre_97);}.cls-2{fill:url(#Degradado_sin_nombre_97-2);}</style><linearGradient id="Degradado_sin_nombre_97" x1="109.53" y1="210.23" x2="165.21" y2="40.63" gradientUnits="userSpaceOnUse"><stop offset="0.16" stop-color="#40013c"/><stop offset="0.82" stop-color="#731565"/></linearGradient><linearGradient id="Degradado_sin_nombre_97-2" x1="135.61" y1="55.64" x2="38.17" y2="161.36" xlink:href="#Degradado_sin_nombre_97"/></defs><g id="Layer_2" data-name="Layer 2"><g id="Capa_1" data-name="Capa 1"><path d="M318.3,29.76h29.19c17.63,0,30.71,13.55,30.71,30.36S365.12,90.6,347.37,90.6H334.18V115H318.3Zm15.88,14.72V75.89h12.14A15.44,15.44,0,0,0,362.2,60.12c0-8.76-6.54-15.64-15.88-15.64Z"/><path d="M385.78,28.6h15.88V115H385.78Z"/><path d="M408.55,80.91c0-22.66,16.58-35.62,33.86-35.62,9,0,16.93,3.62,21.95,9.58V46.69h15.76V115H464.36v-8.87c-5,6.42-13.19,10.27-22.18,10.27C425.71,116.4,408.55,103.32,408.55,80.91Zm56.63-.24c0-11.67-8.64-21-20.43-21s-20.67,9.23-20.67,21,9,21.25,20.67,21.25S465.18,92.46,465.18,80.67Z"/><path d="M486.66,46.69h11.67V36.3l15.88-10.86V46.69h13.9V60.82h-13.9V86.39c0,11.91,1.75,13.78,13.9,13.78V115h-2.22c-21.13,0-27.56-6.77-27.56-28.49V60.82H486.66Z"/><path d="M543.63,20.07c6.19,0,9.93,4,9.93,9.93s-3.74,9.81-9.93,9.81c-6.42,0-9.92-3.86-9.92-9.81S537.56,20.07,543.63,20.07Zm-7.94,26.62h15.88V115H535.69Z"/><path d="M560.68,46.69h15.64V55.1a25,25,0,0,1,20.44-9.81c17.16,0,27.09,10.63,27.09,29.19V115h-16V76.12c0-10.63-5.14-17.17-15.41-17.17-9,0-16,6.54-16,18.57V115H560.68Z"/><path d="M630.73,80.91a35.38,35.38,0,1,1,35.38,35.49A35.19,35.19,0,0,1,630.73,80.91Zm55.23,0c0-11.56-8.64-20.79-19.85-20.79s-19.85,9.23-19.85,20.79c0,11.32,8.52,20.66,19.85,20.66S686,92.23,686,80.91Z"/><path d="M321.33,133.87h11.33v85.24H321.33Z"/><path d="M348.65,150.8h11v10.51c4.67-7.12,12.84-11.91,23.12-11.91,17.86,0,29.07,11.68,29.07,30.94v38.77H400.61v-38.3c0-13.19-6.54-21.48-20-21.48-11.91,0-20.91,9.22-20.91,21.95v37.83H348.65Z"/><path d="M426.53,150.8h11v9.58c4.56-6.89,12-11,21.84-11,12.14,0,20.31,5.49,24.17,13.9,4.55-8.41,13.42-13.9,24.63-13.9,19.27,0,29.66,11.68,29.66,29.42v40.29H526.59v-40.4c0-11.56-7.24-19.5-19.38-19.5-11,0-19.62,7.59-19.62,20.55v39.35H476.38V177.66c0-11.21-7-18.45-18.68-18.45s-20.08,7.94-20.08,21.48v38.42H426.53Z"/><path d="M549.94,185a35.44,35.44,0,1,1,35.37,35.5A35.18,35.18,0,0,1,549.94,185Zm59.78,0c0-14-10.74-25.33-24.41-25.33S561.15,171,561.15,185s10.62,25.22,24.16,25.22S609.72,198.91,609.72,185Z"/><path d="M644.16,207.66v11.45H633.42V132.7h10.86v29.43c5.48-8.06,15.29-12.73,25-12.73,19.5,0,34.8,15.18,34.8,35.61s-15.65,35.5-34.68,35.5C659.69,220.51,649.65,216,644.16,207.66Zm48.69-22.76c0-14-10.74-25.34-24.52-25.34-14.36,0-24.87,11.33-24.87,25.34s10.51,25.33,24.87,25.33C682.11,210.23,692.85,199,692.85,184.9Z"/><path d="M721.8,126.28c5.14,0,8.06,3.15,8.06,7.82s-2.92,8-8.06,8-7.94-3.16-7.94-8S717,126.28,721.8,126.28Zm-5.6,24.52h11.2v68.31H716.2Z"/><path d="M743.05,132.7h11.21v86.41H743.05Z"/><path d="M775.51,126.28c5.13,0,8,3.15,8,7.82s-2.92,8-8,8-7.94-3.16-7.94-8S770.72,126.28,775.51,126.28ZM769.9,150.8h11.21v68.31H769.9Z"/><path d="M793.37,185c0-20.43,15.41-35.61,34.79-35.61,9.69,0,19.62,4.67,25.11,12.73V150.8h11v68.31h-11V207.55a26.94,26.94,0,0,1-11.1,9.57,31.69,31.69,0,0,1-14,3.39C809,220.51,793.37,205.33,793.37,185Zm60.71-.11c0-14-10.85-25.34-24.87-25.34-13.66,0-24.63,11.33-24.63,25.34s11,25.33,24.63,25.33C843.23,210.23,854.08,199,854.08,184.9Z"/><path d="M879.88,150.8h11v9.81c3.38-6.66,9.11-9.93,17.28-9.93a25.83,25.83,0,0,1,13.31,3.51l-4.67,10.39c-2.69-1.75-4.79-3-10.39-3-9.23,0-15.41,5.61-15.41,19,0,.7-.24,10.39.11,19.73v18.8H879.88Z"/><path d="M936.39,126.28c5.14,0,8.06,3.15,8.06,7.82s-2.92,8-8.06,8-7.94-3.16-7.94-8S931.61,126.28,936.39,126.28Zm-5.6,24.52H942v68.31H930.79Z"/><path d="M954.26,185c0-20.43,15.41-35.61,34.79-35.61,9.69,0,19.62,4.67,25.1,12.73V150.8h11v68.31h-11V207.55a26.91,26.91,0,0,1-11.09,9.57,31.69,31.69,0,0,1-14,3.39C969.9,220.51,954.26,205.33,954.26,185Zm60.71-.11c0-14-10.86-25.34-24.87-25.34-13.66,0-24.64,11.33-24.64,25.34s11,25.33,24.64,25.33C1004.11,210.23,1015,199,1015,184.9Z"/><path class="cls-1" d="M220.57,134.9l-87.36,87.35a26.47,26.47,0,0,1-37.42,0h0V179.8a15.59,15.59,0,0,1,16.44-15.48h.17a49.86,49.86,0,0,0,50.83-39.12h0c6.48-24.36-2.55-54.81-25.46-77.72C121.46,31.17,101.35,21.9,82.31,20.25l11.8-11.8a28.83,28.83,0,0,1,40.79,0l85.67,85.66A28.85,28.85,0,0,1,220.57,134.9Z"/><path class="cls-2" d="M163.23,125.2a49.88,49.88,0,1,0-98.6-10.7v76.59L8.45,134.9a28.83,28.83,0,0,1,0-40.79L82.31,20.25c19,1.65,39.15,10.92,55.46,27.23C160.68,70.39,169.71,100.84,163.23,125.2Z"/></g></g></svg>