<svg xmlns="http://www.w3.org/2000/svg" xmlns:xlink="http://www.w3.org/1999/xlink" viewBox="0 0 661.27 230"><defs><style>.cls-1{fill:#01050c;}.cls-2{fill:url(#linear-gradient);}.cls-3{fill:url(#linear-gradient-2);}</style><linearGradient id="linear-gradient" x1="109.53" y1="210.23" x2="165.21" y2="40.63" gradientUnits="userSpaceOnUse"><stop offset="0" stop-color="#b50d21"/><stop offset="0.95" stop-color="#f72f26"/></linearGradient><linearGradient id="linear-gradient-2" x1="135.61" y1="55.64" x2="38.17" y2="161.36" xlink:href="#linear-gradient"/></defs><g id="Layer_2" data-name="Layer 2"><g id="Capa_1" data-name="Capa 1"><path class="cls-1" d="M280.81,19.05h28.46c17.19,0,29.94,13.2,29.94,29.6s-12.75,29.71-30.06,29.71H296.29v23.79H280.81Zm15.48,14.34V64h11.84a15,15,0,0,0,15.48-15.36c0-8.54-6.37-15.26-15.48-15.26Z"/><path class="cls-1" d="M347.75,17.91h15.48v84.24H347.75Z"/><path class="cls-1" d="M371.08,68.91c0-22.09,16.17-34.72,33-34.72,8.77,0,16.51,3.53,21.4,9.33v-8h15.37v66.6H425.5V93.5a27.26,27.26,0,0,1-21.63,10C387.82,103.52,371.08,90.77,371.08,68.91Zm55.22-.23c0-11.38-8.43-20.49-19.92-20.49s-20.15,9-20.15,20.49S395,89.4,406.38,89.4,426.3,80.18,426.3,68.68Z"/><path class="cls-1" d="M505.08,9.6c6,0,9.68,3.87,9.68,9.67s-3.65,9.57-9.68,9.57c-6.26,0-9.68-3.76-9.68-9.57S499.16,9.6,505.08,9.6Zm-7.74,25.95h15.48v66.6H497.34Z"/><path class="cls-1" d="M522.84,35.55h15.25v8.2A24.34,24.34,0,0,1,558,34.19c16.73,0,26.41,10.36,26.41,28.46v39.5h-15.6V64.24c0-10.36-5-16.73-15-16.73-8.76,0-15.59,6.37-15.59,18.1v36.54H522.84Z"/><path class="cls-1" d="M592.28,68.91a34.5,34.5,0,1,1,34.5,34.61A34.31,34.31,0,0,1,592.28,68.91Zm53.85,0c0-11.27-8.42-20.26-19.35-20.26s-19.36,9-19.36,20.26c0,11,8.32,20.15,19.36,20.15S646.13,80,646.13,68.91Z"/><path class="cls-1" d="M475.25,18l-15.48,5.64V35.55H448.38V49.33h11.39v25c0,21.18,6.26,27.78,26.87,27.78h2.16V87.7c-11.84,0-13.55-1.83-13.55-13.44V49.33H488.8V35.55H475.25Z"/><polygon class="cls-1" points="363.99 119.88 363.99 203.37 354.7 203.37 354.7 136.07 322.45 179.6 291.55 137.13 291.55 203.37 282.15 203.37 282.15 119.88 290.7 119.88 322.6 164.06 355.67 119.88 363.99 119.88"/><path class="cls-1" d="M405.38,134.55a35.07,35.07,0,1,0,35,35.12A34.7,34.7,0,0,0,405.38,134.55Zm0,61.3c-14.37,0-25.62-11.5-25.62-26.18s11.25-26.28,25.62-26.28,25.51,11.55,25.51,26.28S419.69,195.85,405.38,195.85Z"/><path class="cls-1" d="M513.22,134.55a35.07,35.07,0,1,0,35,35.12A34.7,34.7,0,0,0,513.22,134.55Zm0,61.3c-14.37,0-25.63-11.5-25.63-26.18s11.26-26.28,25.63-26.28,25.51,11.55,25.51,26.28S527.52,195.85,513.22,195.85Z"/><path class="cls-1" d="M597.73,139.86l-5.51,8.1-1.25-.87a14.3,14.3,0,0,0-9-3c-10.89,0-17.13,7.29-17.13,20v39.32H555.6v-67.5h9.07v7.41c4-5.3,10-8.07,17.57-8.07a25.57,25.57,0,0,1,14.1,3.84Z"/><path class="cls-1" d="M647,184c0,10-8,20.68-25.42,20.68-10.83,0-20.77-4.72-26.57-12.63l-.85-1.16,7.3-5.84.92,1.26a24.08,24.08,0,0,0,19.31,9.75c11.83,0,16-6.5,16-12.06,0-7-8.21-9-16.9-11.16l-.71-.18c-9.41-2.35-22.31-5.57-22.31-19.09,0-10.92,10.18-19.14,23.66-19.14,9.45,0,18,3.59,23.62,9.87l1,1.17-7.07,5.76-1-1.08c-4.38-4.92-9.66-7.21-16.64-7.21-8.86,0-14.37,4-14.37,10.52,0,6.74,7.86,8.7,17,11C633.82,166.86,647,170.12,647,184Z"/><path class="cls-1" d="M460.14,120.22l-9.07,3.3v12.35H439.61v8.73h11.46v34.23c0,19.27,5.07,24.54,23.55,24.54h2.5v-8.84h-1.5c-13.31,0-15.48-2.22-15.48-15.81V144.6h17v-8.73h-17Z"/><path class="cls-2" d="M220.57,134.9l-87.36,87.35a26.47,26.47,0,0,1-37.42,0h0V179.8a15.59,15.59,0,0,1,16.44-15.48h.17a49.86,49.86,0,0,0,50.83-39.12h0c6.48-24.36-2.55-54.81-25.46-77.72C121.46,31.17,101.35,21.9,82.31,20.25l11.8-11.8a28.83,28.83,0,0,1,40.79,0l85.67,85.66A28.85,28.85,0,0,1,220.57,134.9Z"/><path class="cls-3" d="M163.23,125.2a49.88,49.88,0,1,0-98.6-10.7v76.59L8.45,134.9a28.83,28.83,0,0,1,0-40.79L82.31,20.25c19,1.65,39.15,10.92,55.46,27.23C160.68,70.39,169.71,100.84,163.23,125.2Z"/></g></g></svg>