<svg xmlns="http://www.w3.org/2000/svg" xmlns:xlink="http://www.w3.org/1999/xlink" viewBox="0 0 348.5 350"><defs><style>.cls-1{fill:url(#Degradado_sin_nombre_200);}.cls-2{fill:url(#Degradado_sin_nombre_200-2);}</style><linearGradient id="Degradado_sin_nombre_200" x1="166.68" y1="319.92" x2="251.4" y2="61.82" gradientUnits="userSpaceOnUse"><stop offset="0" stop-color="#0ca878"/><stop offset="1" stop-color="#69f3bf"/></linearGradient><linearGradient id="Degradado_sin_nombre_200-2" x1="206.36" y1="84.67" x2="58.08" y2="245.55" xlink:href="#Degradado_sin_nombre_200"/></defs><g id="Layer_2" data-name="Layer 2"><g id="Capa_1" data-name="Capa 1"><path class="cls-1" d="M335.64,205.29,202.72,338.21a40.28,40.28,0,0,1-56.95,0h0v-64.6a23.72,23.72,0,0,1,25-23.55H171a75.9,75.9,0,0,0,77.35-59.53v0c9.86-37.07-3.87-83.41-38.74-118.27-24.81-24.82-55.42-38.92-84.39-41.44l18-17.95a43.88,43.88,0,0,1,62.07,0L335.64,143.22A43.87,43.87,0,0,1,335.64,205.29Z"/><path class="cls-2" d="M248.39,190.52a75.9,75.9,0,1,0-150-16.28V290.79l-85.49-85.5a43.87,43.87,0,0,1,0-62.07L125.26,30.81c29,2.52,59.58,16.62,84.39,41.44C244.52,107.11,258.25,153.45,248.39,190.52Z"/></g></g></svg>