<svg xmlns="http://www.w3.org/2000/svg" xmlns:xlink="http://www.w3.org/1999/xlink" viewBox="0 0 229.21 230"><defs><style>.cls-1{fill:url(#linear-gradient);}.cls-2{fill:url(#linear-gradient-2);}</style><linearGradient id="linear-gradient" x1="109.64" y1="-33.5" x2="165.32" y2="136.1" gradientTransform="matrix(1, 0, 0, -1, 0, 176.76)" gradientUnits="userSpaceOnUse"><stop offset="0" stop-color="#b50d21"/><stop offset="0.95" stop-color="#f72f26"/></linearGradient><linearGradient id="linear-gradient-2" x1="135.61" y1="121.12" x2="38.17" y2="15.4" xlink:href="#linear-gradient"/></defs><g id="Layer_2" data-name="Layer 2"><g id="Layer_1-2" data-name="Layer 1"><path class="cls-1" d="M220.57,134.9l-87.36,87.35a26.47,26.47,0,0,1-37.42,0h0V179.8a15.59,15.59,0,0,1,15.68-15.5l.76,0h.17a49.84,49.84,0,0,0,50.83-39.12h0c6.48-24.36-2.55-54.81-25.46-77.72C121.46,31.17,101.35,21.9,82.31,20.25l11.8-11.8a28.84,28.84,0,0,1,40.78,0h0l85.67,85.66a28.7,28.7,0,0,1,.37,40.68A.33.33,0,0,1,220.57,134.9Z"/><path class="cls-2" d="M163.23,125.2a49.88,49.88,0,1,0-98.6-10.7v76.59L8.45,134.9a28.83,28.83,0,0,1,0-40.77l0,0L82.31,20.25c19,1.65,39.15,10.92,55.46,27.23C160.68,70.39,169.71,100.84,163.23,125.2Z"/></g></g></svg>