<?xml version="1.0" encoding="utf-8"?>
<!-- Generator: Adobe Illustrator 26.1.0, SVG Export Plug-In . SVG Version: 6.00 Build 0)  -->
<svg version="1.1" id="Layer_1" xmlns="http://www.w3.org/2000/svg" xmlns:xlink="http://www.w3.org/1999/xlink" x="0px" y="0px"
	 viewBox="0 0 209.1 143.2" style="enable-background:new 0 0 209.1 143.2;" xml:space="preserve">
<style type="text/css">
	.st0{fill:#FFFFFF;}
</style>
<g id="Layer_2_00000070092314852129503820000016987868677033600425_">
	<g id="_Layer_">
		<path class="st0" d="M25.2,99h13.7L20.4,51.4l-2.9,32.3c0.8,0.4,1.5,0.9,2.1,1.6c2.7,3.1,1.6,6.5,0.7,9.3
			c-1.2,3.6-2.1,6.4,2.8,9.8v-3.4C23.1,99.9,24,99,25.2,99L25.2,99z"/>
		<path class="st0" d="M208.9,128.8c-0.4-0.7-1-1.1-1.8-1.1c-12.9,0-18.3-2.2-22.1-6.6c-0.1-7.9-4.5-15.1-11.5-18.9
			c0.2-0.3,0.4-0.8,0.4-1.2V78c0-0.8-0.5-1.6-1.3-1.9L138,61.8l-22.7-28.4c-0.4-0.5-1-0.8-1.6-0.8H70.1c-4.5,0-8.1,3.6-8.1,8.1v44.4
			c-2.2,0.9-4.3,2.1-6.2,3.6l-5-49.8c0-0.4-0.2-0.8-0.5-1.1L20.2,3.1C17-0.6,11.4-1,7.7,2.2C5,4.5,3.9,8.3,5.1,11.7v74.5
			c-2.2,1.8-3.8,4.3-4.5,7.1c-1.5,5.5,0.1,11.9,4,16.9c2.9,3.8,7.2,6.2,11.8,6.8c0.6,0.1,1.2,0.1,1.9,0.1c1.6,0,3.3-0.2,4.9-0.7v8.8
			c0,1.1,0.9,2,2,2h22c2.7,4.9,6.6,9,11.4,11.8c9.4,5.5,21,5.5,30.3,0c4.8-2.8,8.8-6.9,11.4-11.8h41.8c1.3,4.7,4.3,8.9,8.3,11.8
			c1.1,0.8,2.3,1.4,3.5,2c2.9,1.3,6,2,9.2,2h36.4c0.7,0,1.3-0.3,1.7-0.9l7.5-11.4C209.1,130.1,209.1,129.4,208.9,128.8z
			 M175.9,139.1c4.3-3.1,7.3-7.7,8.5-12.8c3.9,3.1,9.4,5.1,18.9,5.5l-4.8,7.4L175.9,139.1z M118.9,123.2h-16.6
			c2.4-6.5,2.4-13.6,0.2-20.2h46.2c0.7,0,1.4,0.2,2,0.6c0.6,0.4,1.1,0.9,1.4,1.5c0.3,0.6,0.5,1.2,0.5,1.8v12.4
			c0,2.1-1.7,3.9-3.9,3.9C148.6,123.3,118.9,123.3,118.9,123.2z M95.7,127.3c-7.9,12.1-24.1,15.4-36.2,7.5c-3-2-5.5-4.5-7.5-7.5
			c-0.4-0.7-0.8-1.3-1.2-2s-0.7-1.3-1-2c-1.4-3.3-2.1-6.8-2.1-10.3c0-3.4,0.7-6.7,1.9-9.8c0.3-0.7,0.6-1.4,0.9-2s0.8-1.4,1.2-2
			c0.3-0.4,0.6-0.9,0.9-1.3c0.6-0.8,1.2-1.6,1.8-2.3c0.6-0.7,1.2-1.3,1.9-1.9c1.7-1.6,3.7-2.9,5.7-4c0.7-0.3,1.3-0.7,2-0.9
			s1.3-0.5,2-0.7c2.5-0.8,5.1-1.2,7.7-1.2c9,0,17.4,4.5,22.2,12.1c0.4,0.7,0.8,1.3,1.2,2s0.7,1.3,0.9,2c2.6,6.5,2.6,13.7-0.2,20.2
			c-0.3,0.7-0.6,1.4-1,2S96.1,126.7,95.7,127.3z M27.2,123.2v-8.4c1.8-0.9,3.5-2,5.1-3.3c0.9-0.6,1.1-1.9,0.5-2.8
			c-0.3-0.5-0.8-0.8-1.4-0.8c-1.4-0.3-2.8-0.7-4.1-1.2v-3.6h18c-0.1,0.2-0.1,0.4-0.2,0.6c-0.4,1.1-0.7,2.2-0.9,3.4
			c-0.2,0.9-0.3,1.8-0.4,2.7c-0.1,1.1-0.2,2.1-0.2,3.2c0,3.5,0.6,7,1.8,10.3L27.2,123.2z M7.8,107.7c-3.1-3.9-4.4-9.1-3.2-13.3
			c0.3-0.9,0.6-1.8,1.1-2.6c0.4-0.7,0.9-1.3,1.5-1.8c0.7-0.6,1.4-1.2,2.2-1.7c0.5-0.3,1-0.5,1.5-0.7c0.7-0.3,1.5-0.5,2.3-0.5
			c0.2,0,0.4,0,0.6,0c0.5,0,1,0.1,1.5,0.2c0.6,0.1,1.1,0.4,1.4,0.8c0.2,0.2,0.4,0.5,0.5,0.7c0.5,1,0.1,2.3-0.6,4.6
			c-1.3,4-3.2,10,5.8,15.4c0.3,0.2,0.6,0.3,0.9,0.5c0.7,0.4,1.4,0.7,2,1c0.4,0.2,0.7,0.3,1.1,0.5c-0.4,0.2-0.7,0.4-1.1,0.6
			c-0.7,0.3-1.4,0.6-2,0.9c-2,0.7-4.1,1-6.2,0.8C13.2,112.5,10,110.6,7.8,107.7z M9.2,6.9c0.4-1,1.2-1.8,2.2-2.3
			c2-1,4.3-0.5,5.8,1.1l29.7,34.2L52,92c-2,2.1-3.7,4.4-5,7h-3.8l-22-56.8l-1.7-4.3l-1.7-4.3L9.2,11L9,10.6C8.7,9.9,8.6,9.2,8.7,8.4
			C8.8,7.9,8.9,7.4,9.2,6.9z M23.2,101.1v3.4c-4.9-3.4-3.9-6.3-2.8-9.8c0.9-2.8,2-6.2-0.7-9.3c-0.6-0.7-1.3-1.2-2.1-1.6l2.9-32.3
			L38.8,99H25.2C24,99,23.1,99.9,23.2,101.1L23.2,101.1L23.2,101.1z M9.2,22.4l7.9,20.4l-3.6,40.1c-1.4,0-2.8,0.3-4.1,0.8l-0.2,0.1
			V22.4z M66.1,40.7c0-2.2,1.8-4,4-4h12.7v39.4c0,1.1,0.9,2,2,2h49.9V99h-34c-6.5-12.6-20.9-18.9-34.5-15.3V40.7z M167.5,116.5
			c1.4,1.2,2.2,3,2.2,4.9c0,3.6-2.8,6.6-6.4,6.6c-0.3,0-0.7,0-1-0.1c-0.7-0.1-1.4-0.3-2-0.6c-0.7-0.3-1.3-0.8-1.9-1.3
			c-1.2-1.2-1.9-2.9-1.9-4.6c0-3.6,3-6.6,6.6-6.6h0.4c0.8,0.1,1.5,0.2,2.2,0.6C166.4,115.7,167,116.1,167.5,116.5L167.5,116.5z
			 M169.7,99h-30.9V66.6l30.9,12.9L169.7,99z M134.7,68.2v6H86.8V36.7h25.8l22,27.5L134.7,68.2z M148.6,127.4c1.7,0,3.4-0.6,4.8-1.6
			c1,2.2,2.7,4,4.8,5.1c0.7,0.3,1.4,0.6,2.1,0.8c0.7,0.2,1.4,0.3,2.1,0.4c0.3,0,0.6,0,0.8,0c5.9,0,10.7-4.8,10.7-10.7
			c0-1.9-0.5-3.7-1.4-5.3c-1-1.7-2.4-3.1-4.2-4.1c-3.7-2-8.4-1.6-11.7,1v-6c0-0.6-0.1-1.3-0.2-1.9c9-3.8,19.4,0.5,23.1,9.6
			c0.5,1.3,0.9,2.6,1.1,4c0.2,0.9,0.2,1.8,0.2,2.8c0,0.4,0,0.7-0.1,1.1c-0.6,8.9-7.6,15.9-16.4,16.5c-0.4,0-0.8,0.1-1.2,0.1
			s-0.7,0-1-0.1c-0.8,0-1.5-0.1-2.3-0.3c-6.2-1.2-11.2-5.5-13.3-11.4L148.6,127.4z"/>
		<path class="st0" d="M109.4,45.8L95.2,60c-0.8,0.8-0.8,2.1,0,2.9s2.1,0.8,2.9,0l0,0l14.1-14.2c0.8-0.8,0.8-2.1,0-2.9
			S110.2,45,109.4,45.8L109.4,45.8z"/>
		<path class="st0" d="M107.2,68.9c0.4,0.4,0.9,0.6,1.4,0.6c0.5,0,1.1-0.2,1.4-0.6l8.2-8.2c0.8-0.8,0.8-2.1,0-2.9s-2.1-0.8-2.9,0
			l0,0l-8.2,8.2C106.4,66.8,106.4,68.1,107.2,68.9C107.2,68.9,107.2,68.9,107.2,68.9z"/>
		<path class="st0" d="M81.9,101.1c-1.4-0.9-2.9-1.6-4.6-2c-2.3-0.6-4.7-0.6-7,0c-1.1,0.3-2.2,0.7-3.2,1.2c-0.5,0.2-0.9,0.5-1.4,0.8
			c-0.2,0.1-0.3,0.3-0.5,0.4c-0.7,0.5-1.3,1.1-1.9,1.7c-5.4,5.7-5.2,14.7,0.4,20.2c0.8,0.8,1.7,1.4,2.7,2c2.2,1.3,4.8,2,7.4,2
			c0.4,0,0.8,0,1.3-0.1c2.2-0.2,4.2-0.9,6.1-2c1-0.6,1.9-1.2,2.7-2c5.6-5.5,5.8-14.4,0.4-20.2C83.6,102.3,82.8,101.6,81.9,101.1z
			 M75.2,123.2c-0.5,0.1-0.9,0.1-1.4,0.1c-0.8,0-1.7-0.1-2.5-0.3c-1-0.3-2-0.7-2.9-1.2c-4.8-3-6.3-9.4-3.3-14.2
			c1.3-2.1,3.3-3.6,5.7-4.4c0.3-0.1,0.7-0.2,1-0.2c1.7-0.3,3.4-0.2,5,0.2c5.4,1.7,8.5,7.4,6.8,12.9
			C82.4,119.8,79.1,122.6,75.2,123.2L75.2,123.2z"/>
	</g>
</g>
</svg>
