<svg xmlns="http://www.w3.org/2000/svg" viewBox="0 0 135.95 214.53"><defs><style>.cls-1{fill:#3f3f3f;}</style></defs><g id="Layer_2" data-name="Layer 2"><g id="_Layer_" data-name="&lt;Layer&gt;"><path class="cls-1" d="M39.22,114.7V100.26H33.45V12.71L24.18,0,14.91,12.71v87.55H9.14V114.7A9.38,9.38,0,0,0,0,124.06v.44a9.36,9.36,0,0,0,9.14,9.35v61.52A9.37,9.37,0,0,0,0,204.73v.43a9.38,9.38,0,0,0,9.37,9.37H39a9.38,9.38,0,0,0,9.37-9.37v-.43a9.37,9.37,0,0,0-9.14-9.36V133.85a9.36,9.36,0,0,0,9.14-9.35v-.44A9.38,9.38,0,0,0,39.22,114.7ZM19,14,24.18,7,29.35,14v86.22H19Zm-5.77,90.32H35.12v10.33H13.24Zm21.88,91H13.24V133.87H35.12Zm9.14,9.37v.43A5.27,5.27,0,0,1,39,210.43H9.37a5.27,5.27,0,0,1-5.27-5.27v-.43a5.26,5.26,0,0,1,5-5.25l.23,0H39l.23,0A5.26,5.26,0,0,1,44.26,204.73Zm0-80.23a5.26,5.26,0,0,1-5,5.24,1.81,1.81,0,0,1-.23,0H9.37a1.81,1.81,0,0,1-.23,0,5.26,5.26,0,0,1-5-5.24v-.44a5.28,5.28,0,0,1,5.27-5.27H39a5.28,5.28,0,0,1,5.27,5.27Z"/><rect class="cls-1" x="16.42" y="141.44" width="4.1" height="47.47"/><rect class="cls-1" x="27.84" y="141.44" width="4.1" height="47.47"/><path class="cls-1" d="M126.44,13.16a36.45,36.45,0,0,0-18-10l-3-.69,5.07,32.82-18.6,2.87L86.86,5.33,84.25,6.87a37.8,37.8,0,0,0-18.4,35.3L64,42.46l-1.73.34v2c.7,6.06,4.11,10.42,7.72,15,4.65,6,9.46,12.1,9.46,23v111a20.44,20.44,0,1,0,40.87,0V108.41c0-11.18.07-28.17.12-29.13.46-6.45,3.79-13,7.31-20C134.71,45.39,142.64,29.68,126.44,13.16ZM83.76,12.1l4.11,26.67-18,2.78A33.73,33.73,0,0,1,83.76,12.1Zm32.43,181.76a16.34,16.34,0,1,1-32.67,0v-83.4h32.67ZM124.06,57.4c-3.55,7-7.23,14.31-7.74,21.62-.06,1.08-.11,20.55-.13,27.34H83.52V82.86c0-12.33-5.48-19.35-10.33-25.54-2.9-3.72-5.46-7-6.49-11l23.84-3.68,2.23-.42,0-.07,22.44-3.46L110.45,8A32.08,32.08,0,0,1,123.51,16C137.66,30.45,131.05,43.54,124.06,57.4Z"/><path class="cls-1" d="M115,54.19a9.54,9.54,0,0,0-10.9-7.92l-9.54,1.51a9.54,9.54,0,0,0-7.92,10.9l.59,3.69a9.53,9.53,0,0,0,9.39,8,9.7,9.7,0,0,0,1.51-.12l9.54-1.51a9.53,9.53,0,0,0,7.91-10.9Zm-8,10.54-9.53,1.51a5.43,5.43,0,0,1-6.21-4.51L90.69,58a5.43,5.43,0,0,1,4.51-6.21l9.54-1.51a6.22,6.22,0,0,1,.85-.07A5.44,5.44,0,0,1,111,54.83l.59,3.69A5.44,5.44,0,0,1,107,64.73Z"/><rect class="cls-1" x="94.45" y="55.9" width="4.1" height="6.23" transform="translate(-8.04 15.82) rotate(-9)"/><rect class="cls-1" x="103.68" y="54.44" width="4.1" height="6.23" transform="translate(-7.7 17.25) rotate(-9)"/><path class="cls-1" d="M99.85,195.84a8.28,8.28,0,1,0-8.28-8.28A8.29,8.29,0,0,0,99.85,195.84Zm0-12.46a4.18,4.18,0,1,1-4.18,4.18A4.19,4.19,0,0,1,99.85,183.38Z"/></g></g></svg>