<?xml version="1.0" encoding="utf-8"?>
<!-- Generator: Adobe Illustrator 26.1.0, SVG Export Plug-In . SVG Version: 6.00 Build 0)  -->
<svg version="1.1" id="Layer_1" xmlns="http://www.w3.org/2000/svg" xmlns:xlink="http://www.w3.org/1999/xlink" x="0px" y="0px"
	 viewBox="0 0 209.1 190.1" style="enable-background:new 0 0 209.1 190.1;" xml:space="preserve">
<style type="text/css">
	.st0{fill:#FFFFFF;}
</style>
<g id="Layer_2_00000025425451741228034720000015451094899905457591_">
	<g id="_Layer_">
		<path class="st0" d="M104.6,47c7,0,12.6-5.6,12.6-12.6s-5.6-12.6-12.6-12.6c-7,0-12.6,5.6-12.6,12.6c0,0,0,0.1,0,0.1
			C92,41.4,97.6,47,104.6,47z M104.6,25.9c4.7,0,8.5,3.8,8.5,8.5s-3.8,8.5-8.5,8.5c-4.7,0-8.5-3.8-8.5-8.5c0,0,0,0,0,0
			C96.1,29.8,99.9,26,104.6,25.9L104.6,25.9z"/>
		<path class="st0" d="M80.5,46l-6.6,6.5l12.5,12.5l6.6-6.6c0.9,0.4,1.8,0.8,2.7,1.1v9.3h17.7v-9.3c0.9-0.3,1.8-0.7,2.7-1.1l6.6,6.6
			l12.5-12.5l-6.5-6.6c0.4-0.9,0.8-1.8,1.1-2.7h9.3V25.6h-9.3c-0.3-0.9-0.7-1.8-1.1-2.7l6.6-6.5L122.7,3.8l-6.6,6.6
			c-0.9-0.4-1.8-0.8-2.7-1.1V0H95.7v9.3c-0.9,0.3-1.8,0.7-2.7,1.1l-6.6-6.6L73.9,16.4l6.6,6.5c-0.4,0.9-0.8,1.8-1.1,2.7h-9.3v17.7
			h9.3C79.7,44.2,80.1,45.1,80.5,46z M74.2,29.7h8.2l0.4-1.5c0.5-1.6,1.1-3.2,1.9-4.7l0.8-1.4l-5.8-5.8l6.7-6.7l5.8,5.8l1.3-0.8
			c1.5-0.8,3.1-1.5,4.7-1.9l1.5-0.4V4.1h9.5v8.2l1.5,0.4c1.6,0.5,3.2,1.1,4.7,1.9l1.3,0.8l5.8-5.8l6.7,6.7l-5.8,5.8l0.8,1.4
			c0.8,1.5,1.5,3.1,1.9,4.7l0.4,1.5h8.2v9.5h-8.2l-0.4,1.5c-0.5,1.6-1.1,3.2-1.9,4.7l-0.8,1.3l5.8,5.8l-6.7,6.7l-5.8-5.8l-1.3,0.8
			c-1.5,0.8-3.1,1.5-4.7,1.9l-1.5,0.4v8.2h-9.5v-8.2l-1.5-0.4c-1.6-0.5-3.2-1.1-4.7-1.9l-1.3-0.8l-5.8,5.8l-6.7-6.7l5.8-5.8
			l-0.8-1.3c-0.8-1.5-1.5-3.1-1.9-4.7l-0.4-1.5h-8.2V29.7z"/>
		<path class="st0" d="M209.1,58.2c0-7.8-6.3-14.2-14.1-14.2s-14.2,6.3-14.2,14.1c0,7,5.2,13,12.1,14v28.7c0,3.4-2.7,6.1-6.1,6.1
			h-29.9c1.3-1.8,2-3.9,2-6.1v-33c7.7-1.1,13.1-8.3,12-16.1c-1.1-7.7-8.3-13.1-16.1-12c-7.7,1.1-13.1,8.3-12,16.1
			c0.9,6.2,5.8,11.1,12,12v33c0,3.4-2.7,6.1-6.1,6.1h-14c-8.7-16.7-29.3-23.2-46-14.6c-6.2,3.2-11.3,8.3-14.6,14.6h-14
			c-3.4,0-6.1-2.7-6.1-6.1v-33c7.7-1.1,13.1-8.3,12-16.1c-1.1-7.7-8.3-13.1-16.1-12S36.9,48.2,38,56c0.9,6.2,5.8,11.1,12,12v33
			c0,2.2,0.7,4.3,2,6.1H22.3c-3.4,0-6.1-2.7-6.1-6.1V72.2c7.7-1.1,13.1-8.3,12-16.1c-1.1-7.7-8.3-13.1-16.1-12S-1,52.5,0.1,60.2
			c0.9,6.2,5.8,11.1,12,12v28.7c0,5.6,4.6,10.2,10.2,10.2h50.2c-4.9,13.5-0.8,28.6,10.2,37.8v11.7H56.9c-3.4,0-6.1-2.7-6.1-6.1v-9.3
			c7.7-1.1,13.1-8.3,12-16.1s-8.3-13.1-16.1-12c-7.7,1.1-13.1,8.3-12,16.1c0.9,6.2,5.8,11.1,12,12v9.3c0,5.6,4.6,10.2,10.2,10.2
			h25.8v25.4h4.1v-38.3c4.7,2.9,10.1,4.6,15.7,4.9v33.4h4.1v-33.4c5.6-0.3,11-2,15.7-4.9v38.3h4.1v-25.4h25.8
			c5.6,0,10.2-4.6,10.2-10.2v-9.3c7.7-1.1,13.1-8.3,12-16.1s-8.3-13.1-16.1-12c-7.7,1.1-13.1,8.3-12,16.1c0.9,6.2,5.8,11.1,12,12
			v9.3c0,3.4-2.7,6.1-6.1,6.1h-25.8v-11.1h-0.9c11.6-9.1,16.1-24.6,11.1-38.5h50.2c5.6,0,10.2-4.6,10.2-10.2V72.2
			C203.9,71.1,209.1,65.2,209.1,58.2z M146.9,53.9c0-5.6,4.5-10.1,10.1-10.1c5.6,0,10.1,4.5,10.1,10.1S162.5,64,156.9,64
			c0,0,0,0,0,0C151.4,64,146.9,59.5,146.9,53.9z M42.1,53.9c0-5.6,4.5-10.1,10.1-10.1c5.6,0,10.1,4.5,10.1,10.1
			c0,5.6-4.5,10.1-10.1,10.1c0,0,0,0,0,0C46.6,64,42.1,59.5,42.1,53.9z M4.1,58.2c0-5.6,4.5-10.1,10.1-10.1
			c5.6,0,10.1,4.5,10.1,10.1c0,5.6-4.5,10.1-10.1,10.1c0,0,0,0,0,0C8.6,68.2,4.1,63.7,4.1,58.2L4.1,58.2z M38.7,131.2
			c0-5.6,4.5-10.1,10.1-10.1s10.1,4.5,10.1,10.1c0,5.6-4.5,10.1-10.1,10.1c0,0,0,0,0,0C43.2,141.3,38.7,136.8,38.7,131.2L38.7,131.2
			z M150.3,131.2c0-5.6,4.5-10.1,10.1-10.1c5.6,0,10.1,4.5,10.1,10.1c0,5.6-4.5,10.1-10.1,10.1c0,0,0,0,0,0
			C154.8,141.3,150.3,136.8,150.3,131.2L150.3,131.2z M104.6,152.7c-16.6,0-30-13.4-30-30s13.4-30,30-30s30,13.4,30,30l0,0
			C134.5,139.3,121.1,152.7,104.6,152.7L104.6,152.7z M194.9,68.2c-5.6,0-10.1-4.5-10.1-10.1c0-5.6,4.5-10.1,10.1-10.1
			c5.6,0,10.1,4.5,10.1,10.1c0,0,0,0,0,0C205,63.7,200.5,68.2,194.9,68.2L194.9,68.2z"/>
		<path class="st0" d="M104.6,106.2c4.8,0,8.6,3.2,8.6,7.2h4.1c0-5.6-4.6-10.3-10.7-11.2V100h-4.1v2.2c-6,0.9-10.7,5.5-10.7,11.2
			c0,6.2,5.7,11.3,12.7,11.3c4.8,0,8.6,3.2,8.6,7.2c0,4-3.9,7.2-8.6,7.2s-8.6-3.1-8.6-7.1h-4.1c0,5.6,4.6,10.3,10.7,11.1v2.2h4.1
			v-2.2c6.1-0.9,10.7-5.5,10.7-11.1c0-6.2-5.7-11.3-12.7-11.3c-4.8,0-8.6-3.2-8.6-7.2S99.8,106.2,104.6,106.2z"/>
	</g>
</g>
</svg>
