<?xml version="1.0" encoding="utf-8"?>
<!-- Generator: Adobe Illustrator 26.1.0, SVG Export Plug-In . SVG Version: 6.00 Build 0)  -->
<svg version="1.1" id="Layer_1" xmlns="http://www.w3.org/2000/svg" xmlns:xlink="http://www.w3.org/1999/xlink" x="0px" y="0px"
	 viewBox="0 0 209.1 142.2" style="enable-background:new 0 0 209.1 142.2;" xml:space="preserve">
<style type="text/css">
	.st0{fill:#FFFFFF;}
</style>
<g id="Layer_2_00000168074868675882637410000003897457365149813641_">
	<g id="_Layer_">
		<path class="st0" d="M207.1,117.2h-20V10.1C187,4.5,182.6,0,177,0H32c-5.5,0-10,4.5-10,10.1v107.1H2c-1.1,0-2,0.9-2,2
			c0,7.9,4.3,22.9,20.6,22.9h167.8c16.3,0,20.6-15,20.6-22.9C209.1,118.1,208.2,117.2,207.1,117.2z M20.6,138.1
			c-13.2,0-15.9-11.9-16.4-16.8h27.9l1.6,8.8c0.2,1,1,1.7,2,1.7h137.6c1,0,1.8-0.7,2-1.7l1.6-8.8h27.9c-0.5,4.9-3.2,16.8-16.4,16.8
			H20.6z M26.1,10.1c0-3.3,2.7-6,6-6H177c3.3,0,6,2.7,6,6v107.1H26.1L26.1,10.1z M172.8,121.3l-1.1,6.3H37.5l-1.2-6.3L172.8,121.3z"
			/>
		<path class="st0" d="M38.2,110.8h132.7c1.1,0,2-0.8,2-1.9c0,0,0,0,0-0.1V16.2c0-1.1-0.9-2-2-2c0,0,0,0-0.1,0H38.2
			c-1.1,0-2,0.8-2,1.9c0,0,0,0,0,0.1v92.6c0,1.1,0.8,2,1.9,2.1C38.1,110.8,38.2,110.8,38.2,110.8z M40.2,18.2h128.6v88.4H40.3
			L40.2,18.2z"/>
		<path class="st0" d="M59.2,41.5h30.8c1.1,0,2-0.9,2-2s-0.9-2-2-2H59.2c-1.1,0-2.1,0.9-2.1,2C57.1,40.5,58,41.5,59.2,41.5
			C59.2,41.5,59.2,41.5,59.2,41.5z"/>
		<path class="st0" d="M59.2,56.8h90.8c1.1,0,2-0.9,2-2.1c0-1.1-0.9-2-2-2H59.2c-1.1,0-2,0.9-2,2S58,56.8,59.2,56.8z"/>
		<path class="st0" d="M59.2,72.2h30.8c1.1,0,2-0.9,2-2.1c0-1.1-0.9-2-2-2H59.2c-1.1,0-2,0.9-2,2.1C57.1,71.3,58,72.2,59.2,72.2z"/>
		<path class="st0" d="M59.2,87.6h90.8c1.1,0,2-0.9,2-2.1c0-1.1-0.9-2-2-2H59.2c-1.1,0-2,0.9-2,2.1C57.1,86.7,58,87.6,59.2,87.6z"/>
	</g>
</g>
</svg>
