<?xml version="1.0" encoding="utf-8"?>
<!-- Generator: Adobe Illustrator 26.1.0, SVG Export Plug-In . SVG Version: 6.00 Build 0)  -->
<svg version="1.1" id="Layer_1" xmlns="http://www.w3.org/2000/svg" xmlns:xlink="http://www.w3.org/1999/xlink" x="0px" y="0px"
	 viewBox="0 0 209.1 170.5" style="enable-background:new 0 0 209.1 170.5;" xml:space="preserve">
<style type="text/css">
	.st0{fill:#FFFFFF;}
</style>
<g id="Layer_2_00000107563899564300062050000005812722109637355429_">
	<g id="_Layer_">
		<path class="st0" d="M186.8,14.5c0.4-0.9,0.6-1.9,0.6-2.8V6.9c0-3.8-3.1-6.9-6.9-6.9H67.2c-3.8,0-6.9,3.1-6.9,6.9v14.5
			c0,3.8,3.1,6.9,6.9,6.9h0.1l6.4-0.5L60.5,77.2H20.7c-3.5,0-6.3,2.8-6.3,6.2v5.8H8.9c-2.2,0-4,1.8-4,4.1v5.6c0,2.2,1.8,4,4,4h5.6
			v5.6H8.9c-2.2,0-4,1.8-4,4v5.7c0,2.2,1.8,4,4,4h5.6v3.4c0,0.7,0.1,1.5,0.4,2.2H10c-5.5,0-10,4.5-10,10c0,0,0,0,0,0v22.7
			c0,5.5,4.5,10,10,10h143.3c5.5,0,10-4.5,10-10v-22.6c0-5.5-4.5-10-10-10h-3.9V79.2c0-7.7-6.3-14-14-14H103v-40l58.1-5l27.1,66.6
			v21.7c-9.3,0.1-16.9,7.7-16.9,17v15.5l-7.3,7.2v7.7h16.9c15.6,0,28.2-12.6,28.2-28.2V83.7L186.8,14.5z M205,127.9
			c0,13.3-10.8,24.1-24.1,24.1h-12.8V150l7.2-7.2v-17.2c0-7.1,5.8-12.9,12.9-12.9H205V127.9z M192.2,108.5V86.1l-26.9-66.2l6.8-0.6
			l21.4,59.6h9.7l1.8,5.5v24.2H192.2z M145.3,79.2v48.7H95.8V69.2h39.6C140.8,69.2,145.3,73.7,145.3,79.2z M159.2,137.8v22.7
			c0,3.3-2.6,5.9-5.9,5.9H10c-3.3,0-5.9-2.6-5.9-5.9v-22.7c0-3.3,2.6-5.9,5.9-5.9h143.3C156.5,131.9,159.2,134.6,159.2,137.8z
			 M18.6,125.7v-3.4h38.6v-13.8H18.6V103h38.6V89.2H18.6v-5.8c0-1.2,1-2.2,2.2-2.2h69c1.1,0,2,0.9,2,2v44.6h-71
			C19.5,127.9,18.6,126.9,18.6,125.7C18.6,125.7,18.6,125.7,18.6,125.7z M8.9,112.7h44.2v5.6H18.6H8.9L8.9,112.7z M8.9,93.4h44.2
			v5.5H18.6H8.9L8.9,93.4z M98.9,65.2h-7.2v12.4c-0.6-0.2-1.3-0.3-2-0.3H64.8L78,27.3l5.5-0.5l-7.1,26.5c-1,3.7,1.2,7.4,4.8,8.4
			c0.6,0.2,1.2,0.2,1.8,0.2h3.7c3.6,0,6.6-2.8,6.9-6.4l2-29.8h3.3L98.9,65.2z M91.5,26.2l-1.9,29.1c-0.1,1.5-1.3,2.6-2.8,2.6h-3.7
			c-0.9,0-1.7-0.4-2.2-1.1c-0.5-0.7-0.7-1.6-0.5-2.4l7.4-27.9L91.5,26.2z M95.5,21.7l-10.8,0.9l-9.9,0.8l-7.7,0.7
			c-1.5,0-2.7-1.3-2.7-2.8V6.9c0-1.5,1.2-2.8,2.8-2.8h113.4c1.4,0,2.5,1,2.7,2.4c0,0.1,0,0.3,0,0.4v3.5l0,0v1.3c0,0.8-0.4,1.6-1,2.2
			l0,0c-0.5,0.4-1.1,0.6-1.7,0.6l-1.2,0.1l-3.9,0.3l-3.9,0.3l-7.9,0.7l-2.1,0.2l-2.1,0.2L95.5,21.7z M201.8,74.8h-5.4l-20.1-55.8
			l4.3-0.4c1,0,2-0.3,2.9-0.7L201.8,74.8z M4.5,168.5v-2.1h0.2c1.5,1.3,3.4,2.1,5.3,2.1H4.5z"/>
		<path class="st0" d="M101.3,74.8v37.9h37.9V84.8c0-5.5-4.5-10-10-10L101.3,74.8L101.3,74.8z M105.4,78.9h2.6l-2.7,2.7L105.4,78.9z
			 M117.7,78.9l-12.3,12.3v-3.9l8.4-8.4H117.7z M135.1,108.5h-19.5L135.1,89V108.5z M105.9,108.5l24.4-24.4c0.6,0.7,1.2,1.4,1.8,2.1
			l-22.2,22.2H105.9z M131.5,79.7l-0.8-0.7c2,0.6,3.6,2.2,4.2,4.2C133.9,82,132.7,80.8,131.5,79.7L131.5,79.7z M129.7,78.9
			l-24.3,24.3V97l18.1-18.1h5.6C129.3,78.9,129.5,78.9,129.7,78.9L129.7,78.9z"/>
		<path class="st0" d="M21.3,134.7c-8,0-14.5,6.5-14.5,14.5s6.5,14.5,14.5,14.5s14.5-6.5,14.5-14.5S29.3,134.7,21.3,134.7
			L21.3,134.7z M11,149.2c0-5.7,4.6-10.4,10.4-10.4c5.7,0,10.4,4.6,10.4,10.4c0,5.7-4.6,10.4-10.4,10.4c0,0,0,0,0,0
			C15.6,159.5,11,154.9,11,149.2z"/>
		<path class="st0" d="M127.5,149.2c0,0.5,0,1,0.1,1.5c-3.2-4-9-4.7-13-1.5c-4,3.2-4.7,9-1.5,13s9,4.7,13,1.5
			c2.2-1.7,3.5-4.4,3.5-7.2c4.1,6.9,12.9,9.2,19.8,5.1s9.2-12.9,5.1-19.8c-4.1-6.9-12.9-9.2-19.8-5.1
			C130.3,139.4,127.6,144.1,127.5,149.2L127.5,149.2z M120.2,161.6c-2.9,0-5.2-2.3-5.2-5.2s2.3-5.2,5.2-5.2c2.9,0,5.2,2.3,5.2,5.2
			c0,0,0,0,0,0C125.4,159.3,123.1,161.6,120.2,161.6z M131.6,149.2c0-5.7,4.6-10.4,10.4-10.4c5.7,0,10.4,4.6,10.4,10.4
			c0,5.7-4.6,10.4-10.4,10.4c0,0,0,0,0,0C136.2,159.5,131.6,154.9,131.6,149.2z"/>
		<path class="st0" d="M98.5,147.1c-5.1,0-9.3,4.2-9.3,9.3c0,5.1,4.2,9.3,9.3,9.3c5.1,0,9.3-4.2,9.3-9.3c0,0,0,0,0,0
			C107.8,151.3,103.6,147.1,98.5,147.1z M93.3,156.4c0-2.9,2.3-5.2,5.2-5.2s5.2,2.3,5.2,5.2c0,2.9-2.3,5.2-5.2,5.2
			S93.3,159.3,93.3,156.4z"/>
		<path class="st0" d="M79.2,147.1c-3.6,0-6.9,2.1-8.4,5.4c-2.1-4.7-7.6-6.7-12.3-4.6c-2.1,0.9-3.7,2.6-4.6,4.6
			c-2.1-4.7-7.6-6.7-12.3-4.6s-6.7,7.6-4.6,12.3s7.6,6.7,12.3,4.6c2-0.9,3.7-2.6,4.6-4.6c2.1,4.7,7.6,6.7,12.3,4.6
			c2.1-0.9,3.7-2.6,4.6-4.6c2.1,4.7,7.6,6.7,12.3,4.6c4.7-2.1,6.7-7.6,4.6-12.3C86.2,149.2,82.9,147.1,79.2,147.1z M79.2,161.6
			c-2.9,0-5.2-2.3-5.2-5.2s2.3-5.2,5.2-5.2c2.9,0,5.2,2.3,5.2,5.2c0,0,0,0,0,0C84.4,159.3,82.1,161.6,79.2,161.6z M62.3,161.6
			c-2.9,0-5.2-2.3-5.2-5.2c0-2.9,2.3-5.2,5.2-5.2c2.9,0,5.2,2.3,5.2,5.2C67.5,159.3,65.2,161.6,62.3,161.6L62.3,161.6z M45.5,161.6
			c-2.9,0-5.2-2.3-5.2-5.2c0-2.9,2.3-5.2,5.2-5.2c2.9,0,5.2,2.3,5.2,5.2S48.3,161.6,45.5,161.6C45.5,161.6,45.5,161.6,45.5,161.6z"
			/>
		<path class="st0" d="M74.4,7.2c-3.8,0-6.9,3.1-6.9,6.9c0,3.8,3.1,6.9,6.9,6.9c3.8,0,6.9-3.1,6.9-6.9C81.3,10.3,78.2,7.2,74.4,7.2z
			 M74.4,16.9c-1.5,0-2.8-1.2-2.8-2.8s1.2-2.8,2.8-2.8c1.5,0,2.8,1.2,2.8,2.8c0,0,0,0,0,0C77.2,15.6,75.9,16.9,74.4,16.9
			C74.4,16.9,74.4,16.9,74.4,16.9z"/>
	</g>
</g>
</svg>
