<?xml version="1.0" encoding="utf-8"?>
<!-- Generator: Adobe Illustrator 26.1.0, SVG Export Plug-In . SVG Version: 6.00 Build 0)  -->
<svg version="1.1" id="Layer_1" xmlns="http://www.w3.org/2000/svg" xmlns:xlink="http://www.w3.org/1999/xlink" x="0px" y="0px"
	 viewBox="0 0 209.1 123.1" style="enable-background:new 0 0 209.1 123.1;" xml:space="preserve">
<style type="text/css">
	.st0{fill:#FFFFFF;}
</style>
<g id="Layer_2_00000105397259554393363850000007344202409008904382_">
	<g id="_Layer_">
		<path class="st0" d="M209.1,58c0-0.1,0-0.3-0.1-0.4c0,0,0-0.1,0-0.2c-0.1-0.2-0.1-0.4-0.2-0.5l-20.8-33c-1.5-2.4-4.1-3.8-6.9-3.8
			h-22.2c-4.5,0-8.2,3.7-8.2,8.2v2h-12.2V6.1c0-3.3-2.7-6-6-6H6.1C2.7,0,0,2.7,0,6.1v83c0,3.3,2.7,6,6.1,6h4.7
			c-5,9.2-1.5,20.8,7.7,25.7c6.7,3.6,14.8,2.9,20.7-1.8h16.5c8.3,6.5,20.2,5,26.7-3.2c1.8-2.2,3-4.9,3.6-7.6h69.4
			c2.1,10.3,12.2,16.9,22.4,14.8c10.3-2.1,16.9-12.2,14.8-22.4c-0.4-1.9-1-3.7-2-5.3h10.3c4.5,0,8.2-3.7,8.2-8.2L209.1,58L209.1,58z
			 M203.3,56h-48.6V28.3c0-2.3,1.8-4.1,4.1-4.1h22.2c1.4,0,2.7,0.7,3.5,1.9L203.3,56z M173.9,119c-6.7,0-12.5-4.4-14.3-10.8
			c-0.2-0.7-0.3-1.3-0.4-2c-0.1-0.7-0.1-1.3-0.1-2V104c0-3.2,1.1-6.3,3-8.9c0.6-0.7,1.2-1.4,1.9-2c0.9-0.8,1.8-1.4,2.8-2l0,0
			c4.4-2.5,9.8-2.5,14.3-0.1c1,0.6,2,1.2,2.9,2c0.7,0.6,1.3,1.3,1.9,2c5.1,6.5,3.9,15.8-2.5,20.8C180.5,117.9,177.2,119,173.9,119
			L173.9,119z M86.4,104c0-3.1-0.8-6.2-2.2-8.9h73c-1.5,2.7-2.3,5.8-2.3,8.9H86.4z M81.8,108.1c-2.2,7.9-10.4,12.5-18.3,10.3
			c-5-1.4-8.9-5.3-10.3-10.3c-0.2-0.7-0.3-1.3-0.4-2c-0.1-0.7-0.1-1.3-0.2-2V104c0-3.2,1.1-6.3,3-8.9c0.6-0.7,1.2-1.4,1.9-2
			c0.9-0.8,1.8-1.4,2.9-2c4.4-2.4,9.8-2.4,14.2,0c1,0.6,2,1.2,2.9,2c0.7,0.6,1.3,1.3,1.9,2c1.9,2.6,3,5.7,3,8.9v0.1
			c0,0.7-0.1,1.3-0.1,2C82.1,106.8,81.9,107.5,81.8,108.1L81.8,108.1z M12.6,104.1c0-3.2,1-6.4,3-9c0.6-0.7,1.2-1.4,1.9-2
			c0.9-0.8,1.8-1.4,2.9-2c4.4-2.4,9.8-2.4,14.2,0c1,0.6,2,1.2,2.8,2c0.7,0.6,1.3,1.3,1.9,2c1.9,2.6,3,5.7,3,8.9c0,0,0,0,0,0.1
			c0,0.7-0.1,1.3-0.2,2c-0.1,0.7-0.2,1.3-0.4,2c-2.2,7.9-10.4,12.5-18.4,10.3C17,116.5,12.5,110.7,12.6,104.1L12.6,104.1z M4.1,89.1
			v-83c0-1.1,0.9-2,2-1.9h126.4c1.1,0,2,0.9,1.9,2v83c0,1.1-0.9,2-1.9,2H81.2c-7.2-7.6-19.1-7.9-26.7-0.7c-0.3,0.2-0.5,0.5-0.7,0.7
			H41.2c-7.2-7.6-19.1-7.9-26.7-0.7c-0.3,0.2-0.5,0.5-0.7,0.7H6.1C4.9,91.1,4.1,90.2,4.1,89.1C4.1,89.1,4.1,89.1,4.1,89.1L4.1,89.1z
			 M46.4,104c0-3.1-0.8-6.2-2.2-8.9h6.6c-1.5,2.7-2.2,5.8-2.2,8.9H46.4z M150.7,58v21h-12.2V34.4h12.1L150.7,58z M205,60v26.9
			c0,2.3-1.8,4.1-4.1,4.1h-13.3c-7.2-7.6-19.1-7.9-26.7-0.7c-0.3,0.2-0.5,0.5-0.7,0.7h-5.4V60L205,60v-1.4l-0.4-0.6h2.4v2L205,60z"
			/>
		<path class="st0" d="M176.9,95.1c-2.8-1-5.9-0.5-8.4,1.2c-0.8,0.5-1.5,1.2-2.1,1.9c-1.3,1.7-2.1,3.7-2.1,5.9c0,0.7,0.1,1.3,0.2,2
			c0.2,0.7,0.4,1.4,0.7,2c2.2,4.7,7.9,6.7,12.6,4.5s6.7-7.9,4.5-12.6C181.3,97.7,179.3,95.9,176.9,95.1L176.9,95.1z M173.9,109.4
			c-3,0-5.4-2.4-5.4-5.4c0-3,2.4-5.4,5.4-5.4c3,0,5.4,2.4,5.4,5.4c0,0,0,0,0,0C179.2,107.1,176.8,109.5,173.9,109.4
			C173.9,109.4,173.9,109.4,173.9,109.4L173.9,109.4z"/>
		<path class="st0" d="M23.9,19.1h90.8c1.1,0,2.1-0.9,2.1-2.1c0-1.1-0.9-2-2.1-2H23.9c-1.1,0-2,0.9-2,2
			C21.8,18.1,22.7,19.1,23.9,19.1z"/>
		<path class="st0" d="M23.9,34.4h90.8c1.1,0,2.1-0.9,2.1-2c0-1.1-0.9-2.1-2.1-2.1H23.9c-1.1,0-2,0.9-2,2.1
			C21.8,33.5,22.7,34.4,23.9,34.4z"/>
		<path class="st0" d="M23.9,49.8h90.8c1.1,0,2.1-0.9,2.1-2c0-1.1-0.9-2.1-2-2.1c0,0,0,0,0,0H23.9c-1.1,0-2,0.9-2,2
			S22.7,49.8,23.9,49.8z"/>
		<path class="st0" d="M23.9,65.2h90.8c1.1,0,2-0.9,2-2s-0.9-2-2-2H23.9c-1.1,0-2,0.9-2,2S22.7,65.2,23.9,65.2z"/>
		<path class="st0" d="M30.5,95.1c-1-0.3-2-0.5-3-0.5c-0.4,0-0.8,0-1.2,0.1c-0.6,0.1-1.2,0.2-1.8,0.4l-0.3,0.1
			c-4.9,1.8-7.4,7.2-5.6,12.1c1.8,4.9,7.2,7.4,12.1,5.6c2.3-0.9,4.2-2.6,5.3-4.8c0.3-0.6,0.5-1.3,0.7-2c0.1-0.7,0.2-1.3,0.2-2V104
			C36.9,100,34.3,96.4,30.5,95.1z M32.8,104.1c0,0.7-0.1,1.4-0.4,2c-1.1,2.7-4.2,4.1-7,3c-2-0.8-3.4-2.8-3.4-5c0-1.6,0.8-3.2,2-4.2
			c1.1-1,2.6-1.4,4.1-1.1c2.6,0.4,4.5,2.6,4.6,5.1C32.8,104,32.8,104.1,32.8,104.1L32.8,104.1z"/>
		<path class="st0" d="M70.5,95.1c-4.9-1.7-10.3,1-12,5.9C58.2,102,58,103,58,104c0,0,0,0,0,0.1c0,0.7,0.1,1.3,0.2,2
			c0.2,0.7,0.4,1.4,0.7,2c2.2,4.7,7.8,6.7,12.6,4.5c2-0.9,3.6-2.5,4.5-4.5c0.3-0.6,0.5-1.3,0.7-2c0.1-0.7,0.2-1.3,0.2-2
			c0,0,0,0,0-0.1C76.9,100,74.3,96.4,70.5,95.1z M72.8,104.1c0,1.5-0.7,3-1.9,4c-2,1.8-5,1.8-7,0c-1.2-1-1.9-2.5-1.9-4
			c0,0,0,0,0-0.1c0-3,2.4-5.3,5.4-5.3C70.4,98.7,72.8,101.1,72.8,104.1L72.8,104.1C72.8,104.1,72.8,104.1,72.8,104.1L72.8,104.1z"/>
		<path class="st0" d="M174.7,28.5c-0.8-0.8-2-0.8-2.8-0.1c0,0,0,0-0.1,0.1l-14,14c-0.8,0.8-0.8,2.1,0,2.9s2.1,0.8,2.9,0l0,0l14-14
			C175.5,30.6,175.5,29.3,174.7,28.5C174.8,28.5,174.7,28.5,174.7,28.5z"/>
		<path class="st0" d="M177.2,39l-8.4,8.4c-0.8,0.8-0.8,2.1,0,2.9s2.1,0.8,2.9,0l0,0l8.4-8.4c0.8-0.8,0.8-2.1,0-2.9
			S178,38.2,177.2,39z"/>
		<path class="st0" d="M161.9,69.8h7c1.1,0,2.1-0.9,2.1-2c0-1.1-0.9-2.1-2.1-2.1h-7c-1.1,0-2.1,0.9-2.1,2.1
			C159.9,68.9,160.8,69.8,161.9,69.8z"/>
	</g>
</g>
</svg>
