<?xml version="1.0" encoding="utf-8"?>
<!-- Generator: Adobe Illustrator 26.1.0, SVG Export Plug-In . SVG Version: 6.00 Build 0)  -->
<svg version="1.1" id="Layer_1" xmlns="http://www.w3.org/2000/svg" xmlns:xlink="http://www.w3.org/1999/xlink" x="0px" y="0px"
	 viewBox="0 0 135.9 214.5" style="enable-background:new 0 0 135.9 214.5;" xml:space="preserve">
<style type="text/css">
	.st0{fill:#FFFFFF;}
</style>
<g id="Layer_2_00000072961880818928762950000011554319608062164613_">
	<g id="_Layer_">
		<path class="st0" d="M39.2,114.7v-14.4h-5.8V12.7L24.2,0l-9.3,12.7v87.6H9.1v14.4C4.1,114.8,0,119,0,124.1v0.4
			c0,5.1,4.1,9.2,9.1,9.4v61.5c-5.1,0.1-9.1,4.3-9.1,9.4v0.4c0,5.2,4.2,9.4,9.4,9.4H39c5.2,0,9.4-4.2,9.4-9.4v-0.4
			c0-5.1-4.1-9.2-9.1-9.4v-61.5c5.1-0.1,9.1-4.3,9.1-9.3v-0.4C48.4,119,44.3,114.8,39.2,114.7z M19,14l5.2-7l5.2,7v86.2H19V14z
			 M13.2,104.3h21.9v10.3H13.2L13.2,104.3z M35.1,195.3H13.2v-61.5h21.9L35.1,195.3z M44.2,204.7v0.4c0,2.9-2.3,5.3-5.2,5.3
			c0,0,0,0,0,0H9.4c-2.9,0-5.3-2.4-5.3-5.3l0,0v-0.4c0-2.8,2.2-5.1,5-5.2h0.2H39h0.2C42,199.6,44.3,201.9,44.2,204.7L44.2,204.7z
			 M44.2,124.5c0,2.8-2.2,5.1-5,5.2c-0.1,0-0.2,0-0.2,0H9.4c-0.1,0-0.2,0-0.2,0c-2.8-0.1-5-2.4-5-5.2V124c0-2.9,2.4-5.3,5.3-5.3H39
			c2.9,0,5.3,2.4,5.3,5.3L44.2,124.5z"/>
		<rect x="16.4" y="141.4" class="st0" width="4.1" height="47.5"/>
		<rect x="27.8" y="141.4" class="st0" width="4.1" height="47.5"/>
		<path class="st0" d="M126.4,13.2c-4.9-5-11.2-8.5-18-10l-3-0.7l5.1,32.8l-18.6,2.9L86.9,5.3l-2.6,1.5c-12.3,7.3-19.5,21-18.4,35.3
			L64,42.5l-1.7,0.3v2c0.7,6.1,4.1,10.4,7.7,15c4.7,6,9.5,12.1,9.5,23v111c-0.2,11.3,8.7,20.6,20,20.9c11.3,0.2,20.6-8.7,20.9-20
			c0-0.3,0-0.6,0-0.9v-85.4c0-11.2,0.1-28.2,0.1-29.1c0.5-6.4,3.8-13,7.3-20C134.7,45.4,142.6,29.7,126.4,13.2z M83.8,12.1l4.1,26.7
			l-18,2.8C69.1,30,74.4,18.9,83.8,12.1z M116.2,193.9c0.2,9-6.9,16.5-15.9,16.7s-16.5-6.9-16.7-15.9c0-0.3,0-0.5,0-0.8v-83.4h32.7
			V193.9z M124.1,57.4c-3.6,7-7.2,14.3-7.7,21.6c-0.1,1.1-0.1,20.6-0.1,27.3H83.5V82.9c0-12.3-5.5-19.3-10.3-25.5
			c-2.9-3.7-5.5-7-6.5-11l23.8-3.7l2.2-0.4v-0.1l22.4-3.5L110.4,8c4.9,1.6,9.4,4.3,13.1,8C137.7,30.5,131.1,43.5,124.1,57.4z"/>
		<path class="st0" d="M115,54.2c-0.8-5.2-5.7-8.7-10.9-7.9l-9.5,1.5c-5.2,0.8-8.7,5.7-7.9,10.9l0.6,3.7c0.7,4.6,4.7,8,9.4,8
			c0.5,0,1,0,1.5-0.1l9.5-1.5c5.2-0.8,8.7-5.7,7.9-10.9L115,54.2z M107,64.7l-9.5,1.5c-3,0.5-5.7-1.6-6.2-4.5L90.7,58
			c-0.5-3,1.6-5.7,4.5-6.2l9.5-1.5c0.3,0,0.6-0.1,0.8-0.1c2.7,0,5,2,5.4,4.6l0.6,3.7C112,61.5,110,64.3,107,64.7
			C107,64.7,107,64.7,107,64.7z"/>
		
			<rect x="94.5" y="55.9" transform="matrix(0.9877 -0.1564 0.1564 0.9877 -8.0435 15.8231)" class="st0" width="4.1" height="6.2"/>
		
			<rect x="103.7" y="54.4" transform="matrix(0.9877 -0.1564 0.1564 0.9877 -7.7021 17.2487)" class="st0" width="4.1" height="6.2"/>
		<path class="st0" d="M99.8,195.8c4.6,0,8.3-3.7,8.3-8.3s-3.7-8.3-8.3-8.3c-4.6,0-8.3,3.7-8.3,8.3l0,0
			C91.6,192.1,95.3,195.8,99.8,195.8z M99.8,183.4c2.3,0,4.2,1.9,4.2,4.2c0,2.3-1.9,4.2-4.2,4.2s-4.2-1.9-4.2-4.2l0,0
			C95.7,185.3,97.5,183.4,99.8,183.4L99.8,183.4z"/>
	</g>
</g>
</svg>
