<svg xmlns="http://www.w3.org/2000/svg" viewBox="0 0 708.14 232.32"><defs><style>.cls-1{fill:#fff;}.cls-2{fill:#e6e6e6;}</style></defs><g id="Layer_2" data-name="Layer 2"><g id="Capa_1" data-name="Capa 1"><path class="cls-1" d="M220.57,134.9l-87.36,87.35a26.47,26.47,0,0,1-37.42,0h0V179.8a15.59,15.59,0,0,1,16.44-15.48h.17a49.86,49.86,0,0,0,50.83-39.12h0c6.48-24.36-2.55-54.81-25.46-77.72C121.46,31.17,101.35,21.9,82.31,20.25l11.8-11.8a28.83,28.83,0,0,1,40.79,0l85.67,85.66A28.85,28.85,0,0,1,220.57,134.9Z"/><path class="cls-2" d="M163.23,125.2a49.88,49.88,0,1,0-98.6-10.7v76.59L8.45,134.9a28.83,28.83,0,0,1,0-40.79L82.31,20.25c19,1.65,39.15,10.92,55.46,27.23C160.68,70.39,169.71,100.84,163.23,125.2Z"/><path class="cls-1" d="M282,11.57h29.19c17.63,0,30.71,13.54,30.71,30.36S328.8,72.4,311.05,72.4H297.86V96.81H282Zm15.88,14.71V57.69H310a15.44,15.44,0,0,0,15.88-15.76c0-8.76-6.53-15.65-15.88-15.65Z"/><path class="cls-1" d="M349.46,10.4h15.88V96.81H349.46Z"/><path class="cls-1" d="M372.23,62.71c0-22.65,16.58-35.61,33.86-35.61,9,0,16.93,3.62,22,9.57V28.5h15.77V96.81H428V87.93a28,28,0,0,1-22.18,10.28C389.4,98.21,372.23,85.13,372.23,62.71Zm56.63-.23c0-11.68-8.64-21-20.43-21s-20.67,9.22-20.67,21,9,21.25,20.67,21.25S428.86,74.27,428.86,62.48Z"/><path class="cls-1" d="M450.34,28.5H462V18.11L477.9,7.25V28.5h13.89V42.63H477.9V68.2c0,11.91,1.75,13.78,13.89,13.78V96.81h-2.22C468.44,96.81,462,90,462,68.31V42.63H450.34Z"/><path class="cls-1" d="M507.32,1.88c6.18,0,9.92,4,9.92,9.92s-3.74,9.81-9.92,9.81c-6.43,0-9.93-3.85-9.93-9.81S501.24,1.88,507.32,1.88ZM499.38,28.5h15.88V96.81H499.38Z"/><path class="cls-1" d="M524.36,28.5H540v8.41a25,25,0,0,1,20.43-9.81c17.16,0,27.09,10.62,27.09,29.19V96.81h-16V57.92c0-10.62-5.14-17.16-15.41-17.16-9,0-16,6.54-16,18.56V96.81H524.36Z"/><path class="cls-1" d="M594.41,62.71a35.38,35.38,0,1,1,35.38,35.5A35.18,35.18,0,0,1,594.41,62.71Zm55.23,0c0-11.56-8.64-20.78-19.85-20.78s-19.85,9.22-19.85,20.78c0,11.33,8.52,20.67,19.85,20.67S649.64,74,649.64,62.71Z"/><path class="cls-1" d="M281.63,158.3a43.29,43.29,0,0,1,43.79-43.79A43.86,43.86,0,0,1,363.13,136l-9.93,6.07c-5.48-10.15-15.17-16.69-27.78-16.69-18.45,0-32.35,14.71-32.35,32.93S307,191,325.3,191c13.89,0,23.58-7.24,28.84-18l10.16,5.37c-7.48,14.13-21.37,23.7-38.88,23.7A43.36,43.36,0,0,1,281.63,158.3Z"/><path class="cls-1" d="M373.4,166.82c0-20.43,15.41-35.61,34.79-35.61,9.7,0,19.62,4.67,25.11,12.72V132.61h11v68.3h-11V189.35a26.92,26.92,0,0,1-11.09,9.58,31.88,31.88,0,0,1-14,3.38C389.05,202.31,373.4,187.14,373.4,166.82Zm60.72-.12c0-14-10.86-25.34-24.87-25.34-13.66,0-24.64,11.33-24.64,25.34s11,25.34,24.64,25.34C423.26,192,434.12,180.83,434.12,166.7Z"/><path class="cls-1" d="M470.77,190.17v42.15H459.92V132.61h10.85v11.56c5.49-8.29,15.42-13,25.11-13,19.26,0,34.56,15.18,34.56,35.61s-15.53,35.49-34.56,35.49C485.72,202.31,476,198.11,470.77,190.17Zm48.58-23.47c0-14-11-25.34-24.52-25.34-14.48,0-25,11.33-25,25.34s10.51,25.34,25,25.34C508.37,192,519.35,180.83,519.35,166.7Z"/><path class="cls-1" d="M548.42,108.09c5.13,0,8.05,3.15,8.05,7.82s-2.92,7.94-8.05,7.94-7.94-3.15-7.94-7.94S543.63,108.09,548.42,108.09Zm-5.61,24.52H554v68.3H542.81Z"/><path class="cls-1" d="M564.76,132.61h11.91v-13l11-7.59v20.55h16v10h-16v31.76c0,13.66,2.45,16,16,16v10.51H602c-20,0-25.34-5.84-25.34-26.39V142.65H564.76Z"/><path class="cls-1" d="M611,166.82c0-20.43,15.41-35.61,34.79-35.61,9.69,0,19.62,4.67,25.11,12.72V132.61h11v68.3h-11V189.35a27,27,0,0,1-11.1,9.58,31.81,31.81,0,0,1-14,3.38C626.64,202.31,611,187.14,611,166.82Zm60.71-.12c0-14-10.86-25.34-24.87-25.34-13.66,0-24.63,11.33-24.63,25.34s11,25.34,24.63,25.34C660.85,192,671.71,180.83,671.71,166.7Z"/><path class="cls-1" d="M696.93,114.51h11.21v86.4H696.93Z"/></g></g></svg>