<?xml version="1.0" encoding="utf-8"?>
<!-- Generator: Adobe Illustrator 26.1.0, SVG Export Plug-In . SVG Version: 6.00 Build 0)  -->
<svg version="1.1" id="Layer_1" xmlns="http://www.w3.org/2000/svg" xmlns:xlink="http://www.w3.org/1999/xlink" x="0px" y="0px"
	 viewBox="0 0 213.1 213.1" style="enable-background:new 0 0 213.1 213.1;" xml:space="preserve">
<style type="text/css">
	.st0{fill:#FFFFFF;}
</style>
<g id="Layer_2_00000171708086334449538440000018379463822504188075_">
	<g id="_Layer_">
		<path class="st0" d="M133.5,22.3H180c1.1,0,2.1-0.9,2.1-2c0-1.1-0.9-2.1-2.1-2.1h-46.5c-1.1,0-2.1,0.9-2.1,2.1
			C131.4,21.4,132.3,22.3,133.5,22.3z"/>
		<path class="st0" d="M133.5,35.3H180c1.1,0,2.1-0.9,2.1-2s-0.9-2.1-2.1-2.1h-46.5c-1.1,0-2.1,0.9-2.1,2.1S132.3,35.3,133.5,35.3z"
			/>
		<path class="st0" d="M133.5,48.4H180c1.1,0,2.1-0.9,2.1-2c0-1.1-0.9-2.1-2-2.1c0,0,0,0,0,0h-46.5c-1.1,0-2,0.9-2,2.1
			C131.4,47.5,132.3,48.4,133.5,48.4z"/>
		<path class="st0" d="M133.5,61.5H180c1.1,0,2.1-0.9,2.1-2s-0.9-2-2.1-2h-46.5c-1.1,0-2.1,0.9-2.1,2S132.3,61.5,133.5,61.5z"/>
		<path class="st0" d="M133.5,74.5H180c1.1,0,2.1-0.9,2.1-2c0-1.1-0.9-2.1-2.1-2.1h-46.5c-1.1,0-2,0.9-2,2.1
			C131.4,73.6,132.3,74.5,133.5,74.5z"/>
		<path class="st0" d="M133.5,87.6H180c1.1,0,2.1-0.9,2.1-2c0-1.1-0.9-2.1-2-2.1c0,0,0,0,0,0h-46.5c-1.1,0-2,0.9-2,2.1
			C131.4,86.7,132.3,87.6,133.5,87.6z"/>
		<path class="st0" d="M133.5,100.7H180c1.1,0,2.1-0.9,2.1-2c0-1.1-0.9-2.1-2.1-2.1h-46.5c-1.1,0-2.1,0.9-2.1,2
			C131.4,99.7,132.3,100.6,133.5,100.7C133.5,100.7,133.5,100.7,133.5,100.7z"/>
		<path class="st0" d="M133.5,113.7H180c1.1,0,2.1-0.9,2.1-2c0-1.1-0.9-2.1-2.1-2.1h-46.5c-1.1,0-2,0.9-2,2.1
			C131.4,112.8,132.3,113.7,133.5,113.7z"/>
		<path class="st0" d="M133.5,126.8H180c1.1,0,2.1-0.9,2.1-2c0-1.1-0.9-2.1-2.1-2.1h-46.5c-1.1,0-2,0.9-2,2.1
			C131.4,125.9,132.3,126.8,133.5,126.8z"/>
		<path class="st0" d="M133.5,139.8H180c1.1,0,2.1-0.9,2.1-2.1s-0.9-2.1-2.1-2.1h-46.5c-1.1,0-2.1,0.9-2.1,2.1
			S132.3,139.8,133.5,139.8z"/>
		<path class="st0" d="M133.5,152.9H180c1.1,0,2.1-0.9,2.1-2.1s-0.9-2.1-2.1-2.1h-46.5c-1.1,0-2.1,0.9-2.1,2.1
			S132.3,152.9,133.5,152.9z"/>
		<path class="st0" d="M133.5,166H180c1.1,0,2.1-0.9,2.1-2.1s-0.9-2.1-2.1-2.1h-46.5c-1.1,0-2.1,0.9-2.1,2.1S132.3,166,133.5,166z"
			/>
		<path class="st0" d="M133.5,179H180c1.1,0,2.1-0.9,2.1-2.1s-0.9-2.1-2.1-2.1h-46.5c-1.1,0-2.1,0.9-2.1,2.1S132.3,179,133.5,179z"
			/>
		<path class="st0" d="M106.9,96.6H60.3c-1.1,0-2,0.9-2,2.1c0,1.1,0.9,2,2,2h46.6c1.1,0,2.1-0.9,2.1-2C109,97.5,108,96.6,106.9,96.6
			C106.9,96.6,106.9,96.6,106.9,96.6z"/>
		<path class="st0" d="M106.9,109.6H60.3c-1.1,0-2,0.9-2,2.1c0,1.1,0.9,2,2,2h46.6c1.1,0,2-0.9,2-2
			C108.9,110.5,108,109.6,106.9,109.6z"/>
		<path class="st0" d="M106.9,122.7H60.3c-1.1,0-2,0.9-2,2.1c0,1.1,0.9,2,2,2h46.6c1.1,0,2-0.9,2-2
			C108.9,123.6,108,122.7,106.9,122.7z"/>
		<path class="st0" d="M106.9,135.7H60.3c-1.1,0-2.1,0.9-2.1,2.1s0.9,2.1,2.1,2.1h46.6c1.1,0,2.1-0.9,2.1-2.1S108,135.7,106.9,135.7
			z"/>
		<path class="st0" d="M106.9,148.8H60.3c-1.1,0-2.1,0.9-2.1,2.1s0.9,2.1,2.1,2.1h46.6c1.1,0,2.1-0.9,2.1-2.1S108,148.8,106.9,148.8
			z"/>
		<path class="st0" d="M106.9,161.9H60.3c-1.1,0-2.1,0.9-2.1,2.1s0.9,2.1,2.1,2.1h46.6c1.1,0,2.1-0.9,2.1-2.1S108,161.9,106.9,161.9
			z"/>
		<path class="st0" d="M106.9,174.9H60.3c-1.1,0-2.1,0.9-2.1,2.1s0.9,2.1,2.1,2.1l0,0h46.6c1.1,0,2.1-0.9,2.1-2.1
			S108,174.9,106.9,174.9z"/>
		<path class="st0" d="M211.1,209h-16.8V2c0-1.1-0.9-2-2.1-2H119h-0.2h-0.2l-0.2,0.1l-0.2,0.1L118,0.3c-0.1,0-0.1,0.1-0.2,0.1
			l-0.1,0.1L92.6,22.4c-0.5,0.4-0.7,1-0.7,1.5v53.9H46.2c-0.6,0-1.1,0.1-1.5,0.5l-25.2,21.9c-0.4,0.4-0.7,0.9-0.7,1.5V209H2
			c-1.1,0-2.1,0.9-2.1,2.1s0.9,2.1,2.1,2.1h209c1.1,0,2.1-0.9,2.1-2.1S212.2,209,211.1,209z M23,200.4v-97.6l21.3-18.6V209H23V200.4
			z M117,8.4v69.5H96v-53l21-18.3V8.4z M48.4,82H117v127H48.4V82z M121.1,80V4.1h69V209h-69V80L121.1,80z"/>
	</g>
</g>
</svg>
