<?xml version="1.0" encoding="utf-8"?>
<!-- Generator: Adobe Illustrator 26.1.0, SVG Export Plug-In . SVG Version: 6.00 Build 0)  -->
<svg version="1.1" id="Layer_1" xmlns="http://www.w3.org/2000/svg" xmlns:xlink="http://www.w3.org/1999/xlink" x="0px" y="0px"
	 viewBox="0 0 201.1 209.1" style="enable-background:new 0 0 201.1 209.1;" xml:space="preserve">
<style type="text/css">
	.st0{fill:#FFFFFF;}
</style>
<g id="Layer_2_00000017509158718549214800000018047815712531572138_">
	<g id="_Layer_">
		<path class="st0" d="M70.4,139.7c1,0,1.9-0.7,2-1.7l2-11.8c6.6-1.3,12.8-3.9,18.4-7.6l9.7,6.9c0.8,0.6,1.9,0.5,2.6-0.2l8.8-8.8
			c0.7-0.7,0.8-1.8,0.2-2.7l-7-9.7c3.7-5.6,6.3-11.8,7.6-18.3l11.8-2c1-0.1,1.7-1,1.7-2V69.5c0-1-0.7-1.8-1.7-2l-11.8-2
			c-1.3-6.5-3.9-12.8-7.6-18.3l7-9.7c0.6-0.8,0.5-1.9-0.2-2.6l-8.8-8.8c-0.7-0.7-1.8-0.8-2.6-0.2l-9.7,6.9
			c-5.6-3.7-11.8-6.3-18.4-7.6l-2-11.8c-0.2-1-1-1.7-2-1.7H57.9c-1,0-1.8,0.7-2,1.7l-2,11.8c-6.6,1.3-12.8,3.9-18.4,7.6l-9.7-6.9
			c-0.8-0.6-1.9-0.5-2.6,0.2l-8.8,8.8c-0.7,0.7-0.8,1.8-0.2,2.6l7,9.7c-3.7,5.6-6.3,11.8-7.6,18.3l-11.8,2c-1,0.1-1.7,1-1.7,2v12.4
			c0,1,0.7,1.9,1.7,2l11.8,2c1.3,6.5,3.9,12.8,7.6,18.3l-7,9.7c-0.6,0.8-0.5,1.9,0.2,2.7l8.8,8.8c0.7,0.7,1.8,0.8,2.6,0.2l9.7-6.9
			c5.6,3.7,11.8,6.3,18.4,7.6l2,11.8c0.1,1,1,1.7,2,1.7L70.4,139.7z M34.4,114.5l-9.5,6.8l-6.3-6.3l6.8-9.5c0.5-0.7,0.5-1.7,0-2.4
			c-4.1-5.7-6.8-12.3-8-19.3c-0.2-0.9-0.8-1.5-1.7-1.7L4.1,80.2v-8.9l11.5-1.9c0.9-0.1,1.5-0.8,1.7-1.7c1.2-7,3.9-13.6,8-19.3
			c0.5-0.7,0.5-1.7,0-2.4l-6.8-9.5l6.3-6.3l9.5,6.8c0.7,0.5,1.7,0.5,2.4,0c5.8-4.1,12.4-6.8,19.4-8c0.9-0.1,1.5-0.8,1.7-1.7
			l1.9-11.5h9l1.9,11.5c0.1,0.9,0.8,1.6,1.6,1.7c7,1.2,13.6,3.9,19.3,8c0.7,0.5,1.7,0.5,2.4,0l9.5-6.8l6.3,6.3L103,46
			c-0.5,0.7-0.5,1.7,0,2.4c4.1,5.7,6.8,12.3,8,19.3c0.1,0.9,0.8,1.5,1.7,1.7l11.5,1.9v8.9l-11.5,1.9c-0.8,0.1-1.5,0.8-1.7,1.6
			c-1.2,7-3.9,13.6-8,19.3c-0.5,0.7-0.5,1.7,0,2.4l6.8,9.5l-6.3,6.3l-9.5-6.8c-0.7-0.5-1.7-0.5-2.4,0c-5.8,4.1-12.4,6.8-19.3,8
			c-0.9,0.2-1.5,0.8-1.7,1.7l-1.9,11.5h-9l-1.9-11.5c-0.1-0.9-0.8-1.5-1.7-1.7c-7-1.2-13.6-3.9-19.3-8C36,114,35.1,114,34.4,114.5
			L34.4,114.5z"/>
		<path class="st0" d="M64.2,101.6C78.5,101.6,90,90,90,75.7c0-14.3-11.6-25.9-25.9-25.8c-14.3,0-25.8,11.6-25.9,25.9
			C38.3,90,49.8,101.6,64.2,101.6z M64.2,53.9c12,0,21.8,9.8,21.7,21.8S76.1,97.5,64,97.5c-12,0-21.8-9.8-21.7-21.8
			C42.3,63.7,52.1,53.9,64.2,53.9z"/>
		<path class="st0" d="M64.2,91.8c8.8,0,16-7.2,15.9-16c0-8.8-7.2-16-16-15.9c-8.8,0-15.9,7.2-16,16C48.1,84.6,55.3,91.7,64.2,91.8z
			 M64.2,63.8c6.6,0,11.9,5.4,11.9,12c0,6.6-5.4,11.9-12,11.9c-6.6,0-11.9-5.4-11.9-12C52.2,69.1,57.5,63.8,64.2,63.8L64.2,63.8z"/>
		<path class="st0" d="M201.1,111.5l-2.1-8.2c-0.3-1-1.2-1.6-2.2-1.5l-7.7,0.7c-1.9-3.9-4.6-7.4-7.8-10.3l2.8-7.2
			c0.4-0.9,0-2-0.9-2.5l-7.2-4.2c-0.9-0.5-2-0.3-2.6,0.4l-4.9,5.9c-4.1-1.4-8.4-2-12.8-1.8l-3.1-7c-0.4-0.9-1.4-1.4-2.4-1.2
			l-8.2,2.1c-1,0.2-1.6,1.2-1.5,2.2l0.7,7.7c-3.9,1.9-7.4,4.6-10.3,7.7l-7.2-2.8c-0.9-0.4-2,0-2.5,0.9l-4.3,7.3
			c-0.5,0.9-0.3,2,0.4,2.6l5.9,4.9c-1.4,4.1-2,8.4-1.8,12.8l-7,3.1c-0.9,0.4-1.4,1.4-1.2,2.4l2.1,8.2c0.2,1,1.2,1.6,2.2,1.5l7.7-0.7
			c1.9,3.9,4.6,7.4,7.7,10.3L130,152c-0.4,0.9,0,2,0.9,2.5l7.3,4.3c0.9,0.5,2,0.3,2.6-0.4l4.9-5.9c4.1,1.4,8.4,2,12.8,1.8l3.1,7
			c0.3,0.7,1.1,1.2,1.9,1.2c0.2,0,0.3,0,0.5-0.1l8.2-2.1c1-0.2,1.6-1.2,1.5-2.2l-0.7-7.7c3.9-1.9,7.4-4.5,10.3-7.7l7.2,2.8
			c0.9,0.4,2,0,2.5-0.9l4.3-7.3c0.5-0.9,0.3-2-0.4-2.6l-5.9-4.9c1.4-4.1,2-8.4,1.8-12.8l7.1-3.1
			C200.8,113.5,201.3,112.5,201.1,111.5z M183.6,138.4c-0.8-0.3-1.7-0.1-2.3,0.6c-3,3.6-6.9,6.5-11.2,8.4c-0.8,0.4-1.3,1.2-1.2,2.1
			l0.6,7.4l-4.8,1.2l-3-6.7c-0.3-0.7-1.1-1.2-1.9-1.2h-0.2c-4.7,0.4-9.4-0.3-13.8-1.9c-0.8-0.3-1.7-0.1-2.3,0.6l-4.7,5.6l-4.3-2.5
			l2.6-6.9c0.3-0.8,0.1-1.7-0.6-2.3c-3.6-3-6.5-6.8-8.4-11.1c-0.3-0.8-1.1-1.3-2-1.2l-7.4,0.6l-1.2-4.8l6.8-3c0.8-0.3,1.3-1.1,1.2-2
			c-0.4-4.7,0.3-9.4,2-13.8c0.3-0.8,0.1-1.7-0.6-2.3l-5.7-4.7l2.5-4.3l6.9,2.7c0.8,0.3,1.7,0.1,2.3-0.6c3-3.6,6.9-6.5,11.2-8.4
			c0.8-0.3,1.3-1.1,1.2-2l-0.6-7.3l4.8-1.3l3,6.7c0.3,0.8,1.1,1.3,2,1.2c4.7-0.4,9.4,0.3,13.8,1.9c0.8,0.3,1.7,0.1,2.3-0.6l4.8-5.7
			l4.3,2.5l-2.6,6.9c-0.3,0.8-0.1,1.7,0.6,2.3c3.6,3,6.5,6.8,8.4,11.1c0.3,0.8,1.1,1.3,2,1.2l7.4-0.6l1.2,4.8l-6.8,3
			c-0.8,0.3-1.3,1.1-1.2,2c0.4,4.7-0.3,9.4-2,13.8c-0.3,0.8-0.1,1.7,0.6,2.3l5.6,4.7l-2.5,4.3L183.6,138.4z"/>
		<path class="st0" d="M152.5,100.8c-9.8,2.5-15.7,12.5-13.1,22.3c2.1,8.1,9.3,13.7,17.7,13.7c1.6,0,3.1-0.2,4.6-0.6
			c9.8-2.5,15.7-12.5,13.1-22.3S162.3,98.3,152.5,100.8L152.5,100.8L152.5,100.8z M149.8,130.7c-6.8-4-9-12.7-5.1-19.4
			c1.9-3.3,5.1-5.7,8.8-6.6c1.2-0.3,2.4-0.4,3.6-0.4c6.5,0,12.2,4.4,13.8,10.7c1.9,7.6-2.6,15.4-10.3,17.3
			C156.9,133.2,153.1,132.7,149.8,130.7L149.8,130.7z"/>
		<path class="st0" d="M168.3,115.6c-1.6-6.2-7.9-9.9-14.1-8.3c-6.2,1.6-9.9,7.9-8.3,14.1c1.3,5.1,5.9,8.7,11.2,8.7
			c1,0,2-0.1,2.9-0.4C166.2,128.1,169.9,121.8,168.3,115.6L168.3,115.6z M149.8,120.4c-1-4,1.4-8.1,5.4-9.1c0.6-0.2,1.3-0.2,1.9-0.2
			c3.4,0,6.4,2.3,7.2,5.6c1,4-1.4,8.1-5.4,9.1C154.9,126.8,150.9,124.4,149.8,120.4L149.8,120.4L149.8,120.4z"/>
		<path class="st0" d="M116.5,48.8c0.3,1,1.2,1.6,2.2,1.5l6-0.5c1.6,3.1,3.6,5.8,6.2,8.2l-2.2,5.6c-0.4,0.9,0,2,0.9,2.5l6,3.5
			c0.9,0.5,2,0.3,2.6-0.4l3.8-4.6c3.3,1.1,6.7,1.5,10.1,1.4l2.5,5.5c0.3,0.7,1.1,1.2,1.9,1.2c0.2,0,0.3,0,0.5-0.1l6.7-1.7
			c1-0.3,1.6-1.2,1.5-2.2l-0.5-6c3.1-1.5,5.8-3.6,8.1-6.1l5.6,2.2c0.9,0.4,2,0,2.5-0.9l3.5-6c0.5-0.9,0.3-2-0.4-2.6l-4.6-3.9
			c1.1-3.2,1.5-6.7,1.4-10.1l5.5-2.4c0.9-0.4,1.4-1.4,1.1-2.4l-1.7-6.7c-0.3-1-1.2-1.6-2.2-1.5l-6,0.5c-1.6-3.1-3.6-5.8-6.1-8.1
			l2.2-5.6c0.4-0.9,0-2-0.9-2.5l-6-3.5c-0.9-0.5-2-0.3-2.6,0.5l-3.9,4.6c-3.3-1.1-6.7-1.5-10.1-1.4l-2.5-5.5
			c-0.4-0.9-1.4-1.4-2.4-1.2l-6.7,1.7c-1,0.3-1.6,1.2-1.5,2.2l0.5,6c-3,1.5-5.8,3.6-8.1,6.1l-5.6-2.2c-0.9-0.4-2,0-2.5,0.9l-3.5,6
			c-0.5,0.9-0.3,2,0.4,2.6l4.6,3.9c-1.1,3.2-1.5,6.7-1.4,10.1l-5.5,2.4c-0.9,0.4-1.4,1.4-1.2,2.4L116.5,48.8z M129.3,20.4
			c0.8,0.3,1.7,0.1,2.3-0.6c2.5-2.9,5.5-5.2,9-6.8c0.8-0.4,1.3-1.2,1.2-2.1l-0.5-5.7l3.3-0.9l2.4,5.2c0.3,0.8,1.1,1.3,2,1.2
			c3.8-0.3,7.6,0.2,11.1,1.6c0.8,0.3,1.7,0.1,2.3-0.6l3.7-4.4l3,1.8l-2.1,5.3c-0.3,0.8-0.1,1.7,0.6,2.3c2.9,2.5,5.2,5.5,6.8,9
			c0.4,0.8,1.1,1.3,2,1.2l5.7-0.5L183,30l-5.2,2.3c-0.8,0.3-1.3,1.2-1.2,2c0.3,3.8-0.2,7.6-1.6,11.1c-0.3,0.8-0.1,1.7,0.6,2.3
			l4.4,3.7l-1.8,3l-5.4-2.1c-0.8-0.3-1.7-0.1-2.3,0.6c-2.5,2.9-5.5,5.2-9,6.8c-0.8,0.4-1.3,1.2-1.2,2.1l0.5,5.7l-3.4,0.9l-2.3-5.3
			c-0.3-0.7-1.1-1.2-1.9-1.2h-0.2c-3.8,0.3-7.6-0.2-11.1-1.6c-0.8-0.3-1.7-0.1-2.3,0.6l-3.7,4.4l-3-1.8l2.1-5.3
			c0.3-0.8,0.1-1.7-0.6-2.3c-2.9-2.5-5.2-5.5-6.8-9c-0.4-0.8-1.1-1.3-2-1.2l-5.7,0.5l-0.9-3.3l5.2-2.3c0.8-0.3,1.3-1.1,1.2-2
			c-0.3-3.8,0.2-7.6,1.5-11.1c0.3-0.8,0.1-1.7-0.6-2.3l-4.4-3.7l1.8-3L129.3,20.4z"/>
		<path class="st0" d="M143.3,49.6c2.4,1.4,5,2.1,7.8,2.1c1.3,0,2.6-0.2,3.9-0.5c8.2-2.1,13.2-10.5,11.1-18.7s-10.5-13.2-18.7-11.1
			c-8.2,2.1-13.2,10.5-11.1,18.7C137.3,44.1,139.8,47.5,143.3,49.6z M141.4,30.6c1.5-2.6,4-4.4,6.9-5.2c0.9-0.2,1.9-0.4,2.8-0.4
			c6.2,0,11.2,5.1,11.2,11.2c0,6.2-5.1,11.2-11.2,11.2c-6.2,0-11.2-5.1-11.2-11.2C139.9,34.3,140.4,32.4,141.4,30.6L141.4,30.6z"/>
		<path class="st0" d="M128.6,160c-0.2-1-1.2-1.6-2.2-1.5l-6,0.6c-1.6-3-3.7-5.7-6.2-8l2.1-5.6c0.4-0.9,0-2-0.9-2.5l-6-3.5
			c-0.9-0.5-2-0.3-2.6,0.5l-3.8,4.6c-3.3-1.1-6.7-1.6-10.1-1.5l-2.5-5.5c-0.4-0.9-1.4-1.4-2.4-1.1l-6.7,1.8
			c-0.9,0.3-1.5,1.2-1.4,2.2l0.6,6c-3,1.6-5.8,3.7-8.1,6.2l-5.6-2.1c-0.9-0.4-2,0-2.5,0.9l-3.5,6c-0.5,0.9-0.3,2,0.5,2.6l4.6,3.9
			c-1,3.3-1.5,6.7-1.4,10.1l-5.6,2.5c-0.9,0.4-1.4,1.4-1.1,2.4l1.8,6.7c0.3,1,1.2,1.6,2.2,1.5l6-0.6c1.6,3,3.7,5.8,6.2,8.1l-2.1,5.6
			c-0.4,0.9,0,2,0.9,2.5l6,3.5c0.9,0.5,2,0.3,2.6-0.5l3.8-4.6c3.3,1,6.7,1.5,10.1,1.4l2.5,5.5c0.3,0.7,1.1,1.2,1.9,1.2
			c0.2,0,0.4,0,0.5-0.1l6.7-1.8c1-0.2,1.6-1.2,1.5-2.2l-0.6-6c3-1.6,5.8-3.6,8.1-6.2l5.6,2.1c0.9,0.4,2,0,2.5-0.9l3.5-6
			c0.5-0.9,0.3-2-0.5-2.6l-4.7-3.9c1-3.3,1.5-6.7,1.4-10.1l5.5-2.5c0.9-0.4,1.4-1.4,1.1-2.4L128.6,160z M116,188.6
			c-0.8-0.3-1.7-0.1-2.3,0.6c-2.4,2.9-5.5,5.2-8.9,6.8c-0.8,0.4-1.3,1.2-1.2,2.1l0.5,5.7l-3.3,0.9l-2.3-5.2
			c-0.3-0.7-1.1-1.2-1.9-1.2h-0.2c-3.8,0.3-7.6-0.2-11.1-1.5c-0.8-0.3-1.8-0.1-2.3,0.6l-3.6,4.4l-3-1.8l2-5.4
			c0.3-0.8,0.1-1.7-0.6-2.3c-2.9-2.5-5.2-5.5-6.8-9c-0.4-0.8-1.2-1.3-2.1-1.2l-5.7,0.5l-0.9-3.4l5.3-2.3c0.8-0.3,1.3-1.2,1.2-2.1
			c-0.3-3.8,0.2-7.6,1.5-11.2c0.3-0.8,0.1-1.7-0.6-2.3l-4.4-3.7l1.7-3l5.3,2c0.8,0.3,1.7,0.1,2.3-0.6c2.4-2.9,5.5-5.3,9-6.8
			c0.8-0.4,1.3-1.2,1.2-2.1l-0.5-5.7l3.3-0.9l2.3,5.2c0.4,0.8,1.2,1.3,2.1,1.2c3.8-0.3,7.6,0.2,11.1,1.5c0.8,0.3,1.8,0.1,2.3-0.6
			l3.7-4.4l3,1.7l-2,5.4c-0.3,0.8-0.1,1.7,0.6,2.3c2.9,2.4,5.2,5.5,6.8,9c0.4,0.8,1.2,1.2,2,1.2l5.7-0.5l0.9,3.4l-5.2,2.4
			c-0.8,0.4-1.2,1.1-1.2,2c0.3,3.8-0.2,7.6-1.5,11.2c-0.3,0.8-0.1,1.7,0.6,2.3l4.4,3.7l-1.7,3L116,188.6z"/>
		<path class="st0" d="M90.2,157.9c-8.2,2.2-13.1,10.6-10.9,18.8c1.8,6.7,7.9,11.4,14.8,11.4c1.3,0,2.6-0.2,3.9-0.5
			c8.2-2.3,12.9-10.8,10.6-19C106.4,160.6,98.3,155.9,90.2,157.9z M88.5,182.4c-5.4-3.1-7.2-10-4.1-15.4c3.1-5.4,10-7.2,15.4-4.1
			s7.2,10,4.1,15.4c-1.5,2.6-4,4.5-6.9,5.2C94.1,184.4,91.1,183.9,88.5,182.4z"/>
	</g>
</g>
</svg>
